<svg width="724" height="98" viewBox="0 0 724 98" fill="none" xmlns="http://www.w3.org/2000/svg">
<path d="M150.97 71.92H152.89V77.8H160.23V71.92H162.15V86.08H160.23V79.6H152.89V86.08H150.97V71.92ZM164.195 76.6H166.275L169.095 84H169.135L171.815 76.6H173.755L169.255 88.12C169.095 88.5333 168.928 88.9067 168.755 89.24C168.581 89.5867 168.375 89.88 168.135 90.12C167.895 90.36 167.601 90.5467 167.255 90.68C166.921 90.8133 166.508 90.88 166.015 90.88C165.748 90.88 165.475 90.86 165.195 90.82C164.928 90.7933 164.668 90.7267 164.415 90.62L164.635 88.98C164.995 89.1267 165.355 89.2 165.715 89.2C165.995 89.2 166.228 89.16 166.415 89.08C166.615 89.0133 166.781 88.9067 166.915 88.76C167.061 88.6267 167.181 88.4667 167.275 88.28C167.368 88.0933 167.461 87.88 167.555 87.64L168.135 86.14L164.195 76.6ZM175.335 76.6H177.135V77.96H177.175C177.521 77.4533 177.995 77.06 178.595 76.78C179.208 76.5 179.835 76.36 180.475 76.36C181.208 76.36 181.868 76.4867 182.455 76.74C183.055 76.9933 183.561 77.3467 183.975 77.8C184.401 78.2533 184.728 78.7867 184.955 79.4C185.181 80 185.295 80.6467 185.295 81.34C185.295 82.0467 185.181 82.7067 184.955 83.32C184.728 83.92 184.401 84.4467 183.975 84.9C183.561 85.34 183.055 85.6867 182.455 85.94C181.868 86.1933 181.208 86.32 180.475 86.32C179.795 86.32 179.155 86.18 178.555 85.9C177.955 85.6067 177.495 85.2133 177.175 84.72H177.135V91.72H175.335V76.6ZM180.255 78.04C179.775 78.04 179.341 78.1267 178.955 78.3C178.568 78.46 178.241 78.6867 177.975 78.98C177.708 79.26 177.501 79.6067 177.355 80.02C177.208 80.42 177.135 80.86 177.135 81.34C177.135 81.82 177.208 82.2667 177.355 82.68C177.501 83.08 177.708 83.4267 177.975 83.72C178.241 84 178.568 84.2267 178.955 84.4C179.341 84.56 179.775 84.64 180.255 84.64C180.735 84.64 181.168 84.56 181.555 84.4C181.941 84.2267 182.268 84 182.535 83.72C182.801 83.4267 183.008 83.08 183.155 82.68C183.301 82.2667 183.375 81.82 183.375 81.34C183.375 80.86 183.301 80.42 183.155 80.02C183.008 79.6067 182.801 79.26 182.535 78.98C182.268 78.6867 181.941 78.46 181.555 78.3C181.168 78.1267 180.735 78.04 180.255 78.04ZM188.921 82C188.921 82.4133 189.008 82.7933 189.181 83.14C189.368 83.4733 189.608 83.76 189.901 84C190.195 84.24 190.535 84.4267 190.921 84.56C191.308 84.6933 191.708 84.76 192.121 84.76C192.681 84.76 193.168 84.6333 193.581 84.38C193.995 84.1133 194.375 83.7667 194.721 83.34L196.081 84.38C195.081 85.6733 193.681 86.32 191.881 86.32C191.135 86.32 190.455 86.1933 189.841 85.94C189.241 85.6867 188.728 85.34 188.301 84.9C187.888 84.4467 187.568 83.92 187.341 83.32C187.115 82.7067 187.001 82.0467 187.001 81.34C187.001 80.6333 187.121 79.98 187.361 79.38C187.615 78.7667 187.955 78.24 188.381 77.8C188.821 77.3467 189.341 76.9933 189.941 76.74C190.541 76.4867 191.195 76.36 191.901 76.36C192.741 76.36 193.448 76.5067 194.021 76.8C194.608 77.0933 195.088 77.48 195.461 77.96C195.835 78.4267 196.101 78.96 196.261 79.56C196.435 80.1467 196.521 80.7467 196.521 81.36V82H188.921ZM194.601 80.56C194.588 80.16 194.521 79.7933 194.401 79.46C194.295 79.1267 194.128 78.84 193.901 78.6C193.675 78.3467 193.388 78.1533 193.041 78.02C192.708 77.8733 192.315 77.8 191.861 77.8C191.421 77.8 191.015 77.8867 190.641 78.06C190.281 78.22 189.975 78.4333 189.721 78.7C189.468 78.9667 189.268 79.2667 189.121 79.6C188.988 79.92 188.921 80.24 188.921 80.56H194.601ZM198.674 76.6H200.474V78.06H200.514C200.634 77.8067 200.794 77.58 200.994 77.38C201.194 77.1667 201.414 76.9867 201.654 76.84C201.908 76.6933 202.181 76.58 202.474 76.5C202.768 76.4067 203.061 76.36 203.354 76.36C203.648 76.36 203.914 76.4 204.154 76.48L204.074 78.42C203.928 78.38 203.781 78.3467 203.634 78.32C203.488 78.2933 203.341 78.28 203.194 78.28C202.314 78.28 201.641 78.5267 201.174 79.02C200.708 79.5133 200.474 80.28 200.474 81.32V86.08H198.674V76.6ZM211.117 78.98C210.903 78.7133 210.637 78.4933 210.317 78.32C210.01 78.1333 209.63 78.04 209.177 78.04C208.75 78.04 208.377 78.1333 208.057 78.32C207.75 78.4933 207.597 78.7533 207.597 79.1C207.597 79.38 207.683 79.6067 207.857 79.78C208.043 79.9533 208.257 80.0933 208.497 80.2C208.75 80.3067 209.017 80.3867 209.297 80.44C209.577 80.4933 209.817 80.54 210.017 80.58C210.403 80.6733 210.763 80.7867 211.097 80.92C211.443 81.0533 211.737 81.2267 211.977 81.44C212.23 81.6533 212.423 81.9133 212.557 82.22C212.703 82.5267 212.777 82.9 212.777 83.34C212.777 83.8733 212.663 84.3333 212.437 84.72C212.21 85.0933 211.917 85.4 211.557 85.64C211.197 85.88 210.783 86.0533 210.317 86.16C209.863 86.2667 209.403 86.32 208.937 86.32C208.15 86.32 207.457 86.2 206.857 85.96C206.27 85.72 205.743 85.28 205.277 84.64L206.637 83.52C206.93 83.8133 207.257 84.0733 207.617 84.3C207.977 84.5267 208.417 84.64 208.937 84.64C209.163 84.64 209.39 84.62 209.617 84.58C209.857 84.5267 210.063 84.4533 210.237 84.36C210.423 84.2533 210.57 84.1267 210.677 83.98C210.797 83.82 210.857 83.64 210.857 83.44C210.857 83.1733 210.77 82.9533 210.597 82.78C210.437 82.6067 210.237 82.4733 209.997 82.38C209.77 82.2733 209.523 82.1933 209.257 82.14C209.003 82.0733 208.777 82.02 208.577 81.98C208.19 81.8867 207.823 81.78 207.477 81.66C207.13 81.54 206.823 81.38 206.557 81.18C206.29 80.98 206.077 80.7267 205.917 80.42C205.757 80.1133 205.677 79.7333 205.677 79.28C205.677 78.7867 205.777 78.36 205.977 78C206.19 77.6267 206.463 77.32 206.797 77.08C207.143 76.84 207.53 76.66 207.957 76.54C208.397 76.42 208.837 76.36 209.277 76.36C209.917 76.36 210.53 76.48 211.117 76.72C211.703 76.96 212.17 77.36 212.517 77.92L211.117 78.98ZM221.744 79.12C221.41 78.7733 221.057 78.5133 220.684 78.34C220.324 78.1533 219.89 78.06 219.384 78.06C218.89 78.06 218.457 78.1533 218.084 78.34C217.724 78.5133 217.417 78.76 217.164 79.08C216.924 79.3867 216.737 79.7467 216.604 80.16C216.484 80.56 216.424 80.98 216.424 81.42C216.424 81.86 216.497 82.28 216.644 82.68C216.79 83.0667 216.997 83.4067 217.264 83.7C217.53 83.9933 217.85 84.2267 218.224 84.4C218.597 84.56 219.017 84.64 219.484 84.64C219.99 84.64 220.424 84.5533 220.784 84.38C221.144 84.1933 221.477 83.9267 221.784 83.58L223.064 84.86C222.597 85.38 222.05 85.7533 221.424 85.98C220.81 86.2067 220.157 86.32 219.464 86.32C218.73 86.32 218.057 86.2 217.444 85.96C216.844 85.72 216.324 85.3867 215.884 84.96C215.444 84.52 215.104 84 214.864 83.4C214.624 82.7867 214.504 82.1133 214.504 81.38C214.504 80.6467 214.624 79.9733 214.864 79.36C215.104 78.7467 215.437 78.22 215.864 77.78C216.304 77.34 216.824 77 217.424 76.76C218.037 76.5067 218.717 76.38 219.464 76.38C220.157 76.38 220.817 76.5067 221.444 76.76C222.084 77 222.637 77.3733 223.104 77.88L221.744 79.12ZM224.652 77.76C225.159 77.2933 225.745 76.9467 226.412 76.72C227.079 76.48 227.745 76.36 228.412 76.36C229.105 76.36 229.699 76.4467 230.192 76.62C230.699 76.7933 231.112 77.0267 231.432 77.32C231.752 77.6133 231.985 77.9533 232.132 78.34C232.292 78.7133 232.372 79.1067 232.372 79.52V84.36C232.372 84.6933 232.379 85 232.392 85.28C232.405 85.56 232.425 85.8267 232.452 86.08H230.852C230.812 85.6 230.792 85.12 230.792 84.64H230.752C230.352 85.2533 229.879 85.6867 229.332 85.94C228.785 86.1933 228.152 86.32 227.432 86.32C226.992 86.32 226.572 86.26 226.172 86.14C225.772 86.02 225.419 85.84 225.112 85.6C224.819 85.36 224.585 85.0667 224.412 84.72C224.239 84.36 224.152 83.9467 224.152 83.48C224.152 82.8667 224.285 82.3533 224.552 81.94C224.832 81.5267 225.205 81.1933 225.672 80.94C226.152 80.6733 226.705 80.4867 227.332 80.38C227.972 80.26 228.652 80.2 229.372 80.2H230.692V79.8C230.692 79.56 230.645 79.32 230.552 79.08C230.459 78.84 230.319 78.6267 230.132 78.44C229.945 78.24 229.712 78.0867 229.432 77.98C229.152 77.86 228.819 77.8 228.432 77.8C228.085 77.8 227.779 77.8333 227.512 77.9C227.259 77.9667 227.025 78.0533 226.812 78.16C226.599 78.2533 226.405 78.3667 226.232 78.5C226.059 78.6333 225.892 78.76 225.732 78.88L224.652 77.76ZM229.732 81.52C229.305 81.52 228.865 81.5467 228.412 81.6C227.972 81.64 227.565 81.7267 227.192 81.86C226.832 81.9933 226.532 82.18 226.292 82.42C226.065 82.66 225.952 82.9667 225.952 83.34C225.952 83.8867 226.132 84.28 226.492 84.52C226.865 84.76 227.365 84.88 227.992 84.88C228.485 84.88 228.905 84.8 229.252 84.64C229.599 84.4667 229.879 84.2467 230.092 83.98C230.305 83.7133 230.459 83.42 230.552 83.1C230.645 82.7667 230.692 82.44 230.692 82.12V81.52H229.732ZM235.123 70.96H236.923V86.08H235.123V70.96ZM241.148 82C241.148 82.4133 241.234 82.7933 241.408 83.14C241.594 83.4733 241.834 83.76 242.128 84C242.421 84.24 242.761 84.4267 243.148 84.56C243.534 84.6933 243.934 84.76 244.348 84.76C244.908 84.76 245.394 84.6333 245.808 84.38C246.221 84.1133 246.601 83.7667 246.948 83.34L248.308 84.38C247.308 85.6733 245.908 86.32 244.108 86.32C243.361 86.32 242.681 86.1933 242.068 85.94C241.468 85.6867 240.954 85.34 240.528 84.9C240.114 84.4467 239.794 83.92 239.568 83.32C239.341 82.7067 239.228 82.0467 239.228 81.34C239.228 80.6333 239.348 79.98 239.588 79.38C239.841 78.7667 240.181 78.24 240.608 77.8C241.048 77.3467 241.568 76.9933 242.168 76.74C242.768 76.4867 243.421 76.36 244.128 76.36C244.968 76.36 245.674 76.5067 246.248 76.8C246.834 77.0933 247.314 77.48 247.688 77.96C248.061 78.4267 248.328 78.96 248.488 79.56C248.661 80.1467 248.748 80.7467 248.748 81.36V82H241.148ZM246.828 80.56C246.814 80.16 246.748 79.7933 246.628 79.46C246.521 79.1267 246.354 78.84 246.128 78.6C245.901 78.3467 245.614 78.1533 245.268 78.02C244.934 77.8733 244.541 77.8 244.088 77.8C243.648 77.8 243.241 77.8867 242.868 78.06C242.508 78.22 242.201 78.4333 241.948 78.7C241.694 78.9667 241.494 79.2667 241.348 79.6C241.214 79.92 241.148 80.24 241.148 80.56H246.828ZM256.607 71.92H261.547C262.547 71.92 263.421 72.0333 264.167 72.26C264.927 72.4867 265.581 72.7933 266.127 73.18C266.687 73.5533 267.147 73.9867 267.507 74.48C267.881 74.9733 268.174 75.48 268.387 76C268.601 76.52 268.754 77.04 268.847 77.56C268.941 78.08 268.987 78.56 268.987 79C268.987 79.9067 268.821 80.7867 268.487 81.64C268.154 82.48 267.661 83.2333 267.007 83.9C266.354 84.5533 265.541 85.08 264.567 85.48C263.607 85.88 262.494 86.08 261.227 86.08H256.607V71.92ZM258.527 84.28H260.947C261.761 84.28 262.527 84.1733 263.247 83.96C263.981 83.7333 264.621 83.4 265.167 82.96C265.714 82.52 266.147 81.9733 266.467 81.32C266.787 80.6533 266.947 79.88 266.947 79C266.947 78.5467 266.874 78.02 266.727 77.42C266.581 76.8067 266.301 76.2267 265.887 75.68C265.487 75.1333 264.927 74.6733 264.207 74.3C263.487 73.9133 262.554 73.72 261.407 73.72H258.527V84.28ZM276.192 71.92H277.932L283.992 86.08H281.752L280.332 82.58H273.592L272.192 86.08H269.952L276.192 71.92ZM279.632 80.9L276.992 74.4H276.952L274.272 80.9H279.632ZM292.334 86.44C291.254 86.44 290.26 86.2533 289.354 85.88C288.447 85.4933 287.667 84.9667 287.014 84.3C286.374 83.6333 285.867 82.8467 285.494 81.94C285.134 81.0333 284.954 80.0533 284.954 79C284.954 77.9467 285.134 76.9667 285.494 76.06C285.867 75.1533 286.374 74.3667 287.014 73.7C287.667 73.0333 288.447 72.5133 289.354 72.14C290.26 71.7533 291.254 71.56 292.334 71.56C293.414 71.56 294.407 71.7533 295.314 72.14C296.22 72.5133 296.994 73.0333 297.634 73.7C298.287 74.3667 298.794 75.1533 299.154 76.06C299.527 76.9667 299.714 77.9467 299.714 79C299.714 80.0533 299.527 81.0333 299.154 81.94C298.794 82.8467 298.287 83.6333 297.634 84.3C296.994 84.9667 296.22 85.4933 295.314 85.88C294.407 86.2533 293.414 86.44 292.334 86.44ZM292.334 84.64C293.147 84.64 293.88 84.4933 294.534 84.2C295.187 83.8933 295.747 83.4867 296.214 82.98C296.68 82.4733 297.04 81.88 297.294 81.2C297.547 80.5067 297.674 79.7733 297.674 79C297.674 78.2267 297.547 77.5 297.294 76.82C297.04 76.1267 296.68 75.5267 296.214 75.02C295.747 74.5133 295.187 74.1133 294.534 73.82C293.88 73.5133 293.147 73.36 292.334 73.36C291.52 73.36 290.787 73.5133 290.134 73.82C289.48 74.1133 288.92 74.5133 288.454 75.02C287.987 75.5267 287.627 76.1267 287.374 76.82C287.12 77.5 286.994 78.2267 286.994 79C286.994 79.7733 287.12 80.5067 287.374 81.2C287.627 81.88 287.987 82.4733 288.454 82.98C288.92 83.4867 289.48 83.8933 290.134 84.2C290.787 84.4933 291.52 84.64 292.334 84.64ZM307.581 70.96H309.381V78.06H309.421C309.647 77.5533 310.041 77.1467 310.601 76.84C311.161 76.52 311.807 76.36 312.541 76.36C312.994 76.36 313.427 76.4333 313.841 76.58C314.267 76.7133 314.634 76.9267 314.941 77.22C315.261 77.5133 315.514 77.8933 315.701 78.36C315.887 78.8133 315.981 79.3533 315.981 79.98V86.08H314.181V80.48C314.181 80.04 314.121 79.6667 314.001 79.36C313.881 79.04 313.721 78.7867 313.521 78.6C313.321 78.4 313.087 78.26 312.821 78.18C312.567 78.0867 312.301 78.04 312.021 78.04C311.647 78.04 311.301 78.1 310.981 78.22C310.661 78.34 310.381 78.5333 310.141 78.8C309.901 79.0533 309.714 79.38 309.581 79.78C309.447 80.18 309.381 80.6533 309.381 81.2V86.08H307.581V70.96ZM320.054 82C320.054 82.4133 320.141 82.7933 320.314 83.14C320.501 83.4733 320.741 83.76 321.034 84C321.327 84.24 321.667 84.4267 322.054 84.56C322.441 84.6933 322.841 84.76 323.254 84.76C323.814 84.76 324.301 84.6333 324.714 84.38C325.127 84.1133 325.507 83.7667 325.854 83.34L327.214 84.38C326.214 85.6733 324.814 86.32 323.014 86.32C322.267 86.32 321.587 86.1933 320.974 85.94C320.374 85.6867 319.861 85.34 319.434 84.9C319.021 84.4467 318.701 83.92 318.474 83.32C318.247 82.7067 318.134 82.0467 318.134 81.34C318.134 80.6333 318.254 79.98 318.494 79.38C318.747 78.7667 319.087 78.24 319.514 77.8C319.954 77.3467 320.474 76.9933 321.074 76.74C321.674 76.4867 322.327 76.36 323.034 76.36C323.874 76.36 324.581 76.5067 325.154 76.8C325.741 77.0933 326.221 77.48 326.594 77.96C326.967 78.4267 327.234 78.96 327.394 79.56C327.567 80.1467 327.654 80.7467 327.654 81.36V82H320.054ZM325.734 80.56C325.721 80.16 325.654 79.7933 325.534 79.46C325.427 79.1267 325.261 78.84 325.034 78.6C324.807 78.3467 324.521 78.1533 324.174 78.02C323.841 77.8733 323.447 77.8 322.994 77.8C322.554 77.8 322.147 77.8867 321.774 78.06C321.414 78.22 321.107 78.4333 320.854 78.7C320.601 78.9667 320.401 79.2667 320.254 79.6C320.121 79.92 320.054 80.24 320.054 80.56H325.734ZM329.947 70.96H331.747V86.08H329.947V70.96ZM334.612 76.6H336.412V77.96H336.452C336.799 77.4533 337.272 77.06 337.872 76.78C338.485 76.5 339.112 76.36 339.752 76.36C340.485 76.36 341.145 76.4867 341.732 76.74C342.332 76.9933 342.839 77.3467 343.252 77.8C343.679 78.2533 344.005 78.7867 344.232 79.4C344.459 80 344.572 80.6467 344.572 81.34C344.572 82.0467 344.459 82.7067 344.232 83.32C344.005 83.92 343.679 84.4467 343.252 84.9C342.839 85.34 342.332 85.6867 341.732 85.94C341.145 86.1933 340.485 86.32 339.752 86.32C339.072 86.32 338.432 86.18 337.832 85.9C337.232 85.6067 336.772 85.2133 336.452 84.72H336.412V91.72H334.612V76.6ZM339.532 78.04C339.052 78.04 338.619 78.1267 338.232 78.3C337.845 78.46 337.519 78.6867 337.252 78.98C336.985 79.26 336.779 79.6067 336.632 80.02C336.485 80.42 336.412 80.86 336.412 81.34C336.412 81.82 336.485 82.2667 336.632 82.68C336.779 83.08 336.985 83.4267 337.252 83.72C337.519 84 337.845 84.2267 338.232 84.4C338.619 84.56 339.052 84.64 339.532 84.64C340.012 84.64 340.445 84.56 340.832 84.4C341.219 84.2267 341.545 84 341.812 83.72C342.079 83.4267 342.285 83.08 342.432 82.68C342.579 82.2667 342.652 81.82 342.652 81.34C342.652 80.86 342.579 80.42 342.432 80.02C342.285 79.6067 342.079 79.26 341.812 78.98C341.545 78.6867 341.219 78.46 340.832 78.3C340.445 78.1267 340.012 78.04 339.532 78.04ZM351.879 78.98C351.665 78.7133 351.399 78.4933 351.079 78.32C350.772 78.1333 350.392 78.04 349.939 78.04C349.512 78.04 349.139 78.1333 348.819 78.32C348.512 78.4933 348.359 78.7533 348.359 79.1C348.359 79.38 348.445 79.6067 348.619 79.78C348.805 79.9533 349.019 80.0933 349.259 80.2C349.512 80.3067 349.779 80.3867 350.059 80.44C350.339 80.4933 350.579 80.54 350.779 80.58C351.165 80.6733 351.525 80.7867 351.859 80.92C352.205 81.0533 352.499 81.2267 352.739 81.44C352.992 81.6533 353.185 81.9133 353.319 82.22C353.465 82.5267 353.539 82.9 353.539 83.34C353.539 83.8733 353.425 84.3333 353.199 84.72C352.972 85.0933 352.679 85.4 352.319 85.64C351.959 85.88 351.545 86.0533 351.079 86.16C350.625 86.2667 350.165 86.32 349.699 86.32C348.912 86.32 348.219 86.2 347.619 85.96C347.032 85.72 346.505 85.28 346.039 84.64L347.399 83.52C347.692 83.8133 348.019 84.0733 348.379 84.3C348.739 84.5267 349.179 84.64 349.699 84.64C349.925 84.64 350.152 84.62 350.379 84.58C350.619 84.5267 350.825 84.4533 350.999 84.36C351.185 84.2533 351.332 84.1267 351.439 83.98C351.559 83.82 351.619 83.64 351.619 83.44C351.619 83.1733 351.532 82.9533 351.359 82.78C351.199 82.6067 350.999 82.4733 350.759 82.38C350.532 82.2733 350.285 82.1933 350.019 82.14C349.765 82.0733 349.539 82.02 349.339 81.98C348.952 81.8867 348.585 81.78 348.239 81.66C347.892 81.54 347.585 81.38 347.319 81.18C347.052 80.98 346.839 80.7267 346.679 80.42C346.519 80.1133 346.439 79.7333 346.439 79.28C346.439 78.7867 346.539 78.36 346.739 78C346.952 77.6267 347.225 77.32 347.559 77.08C347.905 76.84 348.292 76.66 348.719 76.54C349.159 76.42 349.599 76.36 350.039 76.36C350.679 76.36 351.292 76.48 351.879 76.72C352.465 76.96 352.932 77.36 353.279 77.92L351.879 78.98ZM360.152 76.6H362.232L365.052 84H365.092L367.772 76.6H369.712L365.212 88.12C365.052 88.5333 364.885 88.9067 364.712 89.24C364.538 89.5867 364.332 89.88 364.092 90.12C363.852 90.36 363.558 90.5467 363.212 90.68C362.878 90.8133 362.465 90.88 361.972 90.88C361.705 90.88 361.432 90.86 361.152 90.82C360.885 90.7933 360.625 90.7267 360.372 90.62L360.592 88.98C360.952 89.1267 361.312 89.2 361.672 89.2C361.952 89.2 362.185 89.16 362.372 89.08C362.572 89.0133 362.738 88.9067 362.872 88.76C363.018 88.6267 363.138 88.4667 363.232 88.28C363.325 88.0933 363.418 87.88 363.512 87.64L364.092 86.14L360.152 76.6ZM372.752 81.34C372.752 81.82 372.825 82.2667 372.972 82.68C373.118 83.08 373.325 83.4267 373.592 83.72C373.858 84 374.185 84.2267 374.572 84.4C374.958 84.56 375.392 84.64 375.872 84.64C376.352 84.64 376.785 84.56 377.172 84.4C377.558 84.2267 377.885 84 378.152 83.72C378.418 83.4267 378.625 83.08 378.772 82.68C378.918 82.2667 378.992 81.82 378.992 81.34C378.992 80.86 378.918 80.42 378.772 80.02C378.625 79.6067 378.418 79.26 378.152 78.98C377.885 78.6867 377.558 78.46 377.172 78.3C376.785 78.1267 376.352 78.04 375.872 78.04C375.392 78.04 374.958 78.1267 374.572 78.3C374.185 78.46 373.858 78.6867 373.592 78.98C373.325 79.26 373.118 79.6067 372.972 80.02C372.825 80.42 372.752 80.86 372.752 81.34ZM370.832 81.34C370.832 80.6467 370.958 80 371.212 79.4C371.478 78.8 371.838 78.2733 372.292 77.82C372.745 77.3667 373.278 77.0133 373.892 76.76C374.505 76.4933 375.165 76.36 375.872 76.36C376.578 76.36 377.238 76.4933 377.852 76.76C378.465 77.0133 378.998 77.3667 379.452 77.82C379.905 78.2733 380.258 78.8 380.512 79.4C380.778 80 380.912 80.6467 380.912 81.34C380.912 82.0333 380.778 82.6867 380.512 83.3C380.258 83.9 379.905 84.4267 379.452 84.88C378.998 85.32 378.465 85.6733 377.852 85.94C377.238 86.1933 376.578 86.32 375.872 86.32C375.165 86.32 374.505 86.1933 373.892 85.94C373.278 85.6733 372.745 85.32 372.292 84.88C371.838 84.4267 371.478 83.9 371.212 83.3C370.958 82.6867 370.832 82.0333 370.832 81.34ZM391.567 86.08H389.767V84.62H389.727C389.5 85.1267 389.107 85.54 388.547 85.86C387.987 86.1667 387.34 86.32 386.607 86.32C386.14 86.32 385.7 86.2467 385.287 86.1C384.873 85.9667 384.507 85.7533 384.187 85.46C383.88 85.1667 383.633 84.7933 383.447 84.34C383.26 83.8733 383.167 83.3267 383.167 82.7V76.6H384.967V82.2C384.967 82.64 385.027 83.02 385.147 83.34C385.267 83.6467 385.427 83.9 385.627 84.1C385.827 84.2867 386.053 84.4267 386.307 84.52C386.573 84.6 386.847 84.64 387.127 84.64C387.5 84.64 387.847 84.58 388.167 84.46C388.487 84.34 388.767 84.1533 389.007 83.9C389.247 83.6333 389.433 83.3 389.567 82.9C389.7 82.5 389.767 82.0267 389.767 81.48V76.6H391.567V86.08ZM399.846 70.96H401.646V77.96H401.686C402.006 77.4667 402.466 77.08 403.066 76.8C403.666 76.5067 404.306 76.36 404.986 76.36C405.72 76.36 406.38 76.4867 406.966 76.74C407.566 76.9933 408.073 77.3467 408.486 77.8C408.913 78.24 409.24 78.7667 409.466 79.38C409.693 79.98 409.806 80.6333 409.806 81.34C409.806 82.0467 409.693 82.7 409.466 83.3C409.24 83.9 408.913 84.4267 408.486 84.88C408.073 85.3333 407.566 85.6867 406.966 85.94C406.38 86.1933 405.72 86.32 404.986 86.32C404.346 86.32 403.72 86.18 403.106 85.9C402.506 85.62 402.033 85.2267 401.686 84.72H401.646V86.08H399.846V70.96ZM404.766 84.64C405.246 84.64 405.68 84.56 406.066 84.4C406.453 84.2267 406.78 84 407.046 83.72C407.313 83.4267 407.52 83.08 407.666 82.68C407.813 82.2667 407.886 81.82 407.886 81.34C407.886 80.86 407.813 80.42 407.666 80.02C407.52 79.6067 407.313 79.26 407.046 78.98C406.78 78.6867 406.453 78.46 406.066 78.3C405.68 78.1267 405.246 78.04 404.766 78.04C404.286 78.04 403.853 78.1267 403.466 78.3C403.08 78.46 402.753 78.6867 402.486 78.98C402.22 79.26 402.013 79.6067 401.866 80.02C401.72 80.42 401.646 80.86 401.646 81.34C401.646 81.82 401.72 82.2667 401.866 82.68C402.013 83.08 402.22 83.4267 402.486 83.72C402.753 84 403.08 84.2267 403.466 84.4C403.853 84.56 404.286 84.64 404.766 84.64ZM420.473 86.08H418.673V84.62H418.633C418.406 85.1267 418.013 85.54 417.453 85.86C416.893 86.1667 416.246 86.32 415.513 86.32C415.046 86.32 414.606 86.2467 414.193 86.1C413.78 85.9667 413.413 85.7533 413.093 85.46C412.786 85.1667 412.54 84.7933 412.353 84.34C412.166 83.8733 412.073 83.3267 412.073 82.7V76.6H413.873V82.2C413.873 82.64 413.933 83.02 414.053 83.34C414.173 83.6467 414.333 83.9 414.533 84.1C414.733 84.2867 414.96 84.4267 415.213 84.52C415.48 84.6 415.753 84.64 416.033 84.64C416.406 84.64 416.753 84.58 417.073 84.46C417.393 84.34 417.673 84.1533 417.913 83.9C418.153 83.6333 418.34 83.3 418.473 82.9C418.606 82.5 418.673 82.0267 418.673 81.48V76.6H420.473V86.08ZM423.326 76.6H425.126V86.08H423.326V76.6ZM422.906 73.2C422.906 72.84 423.033 72.5333 423.286 72.28C423.553 72.0133 423.866 71.88 424.226 71.88C424.586 71.88 424.893 72.0133 425.146 72.28C425.413 72.5333 425.546 72.84 425.546 73.2C425.546 73.56 425.413 73.8733 425.146 74.14C424.893 74.3933 424.586 74.52 424.226 74.52C423.866 74.52 423.553 74.3933 423.286 74.14C423.033 73.8733 422.906 73.56 422.906 73.2ZM428.131 70.96H429.931V86.08H428.131V70.96ZM442.296 86.08H440.496V84.72H440.456C440.109 85.2267 439.629 85.62 439.016 85.9C438.416 86.18 437.796 86.32 437.156 86.32C436.422 86.32 435.756 86.1933 435.156 85.94C434.569 85.6867 434.062 85.3333 433.636 84.88C433.222 84.4267 432.902 83.9 432.676 83.3C432.449 82.7 432.336 82.0467 432.336 81.34C432.336 80.6333 432.449 79.98 432.676 79.38C432.902 78.7667 433.222 78.24 433.636 77.8C434.062 77.3467 434.569 76.9933 435.156 76.74C435.756 76.4867 436.422 76.36 437.156 76.36C437.836 76.36 438.476 76.5067 439.076 76.8C439.676 77.08 440.136 77.4667 440.456 77.96H440.496V70.96H442.296V86.08ZM437.376 84.64C437.856 84.64 438.289 84.56 438.676 84.4C439.062 84.2267 439.389 84 439.656 83.72C439.922 83.4267 440.129 83.08 440.276 82.68C440.422 82.2667 440.496 81.82 440.496 81.34C440.496 80.86 440.422 80.42 440.276 80.02C440.129 79.6067 439.922 79.26 439.656 78.98C439.389 78.6867 439.062 78.46 438.676 78.3C438.289 78.1267 437.856 78.04 437.376 78.04C436.896 78.04 436.462 78.1267 436.076 78.3C435.689 78.46 435.362 78.6867 435.096 78.98C434.829 79.26 434.622 79.6067 434.476 80.02C434.329 80.42 434.256 80.86 434.256 81.34C434.256 81.82 434.329 82.2667 434.476 82.68C434.622 83.08 434.829 83.4267 435.096 83.72C435.362 84 435.689 84.2267 436.076 84.4C436.462 84.56 436.896 84.64 437.376 84.64ZM450.629 77.76C451.135 77.2933 451.722 76.9467 452.389 76.72C453.055 76.48 453.722 76.36 454.389 76.36C455.082 76.36 455.675 76.4467 456.169 76.62C456.675 76.7933 457.089 77.0267 457.409 77.32C457.729 77.6133 457.962 77.9533 458.109 78.34C458.269 78.7133 458.349 79.1067 458.349 79.52V84.36C458.349 84.6933 458.355 85 458.369 85.28C458.382 85.56 458.402 85.8267 458.429 86.08H456.829C456.789 85.6 456.769 85.12 456.769 84.64H456.729C456.329 85.2533 455.855 85.6867 455.309 85.94C454.762 86.1933 454.129 86.32 453.409 86.32C452.969 86.32 452.549 86.26 452.149 86.14C451.749 86.02 451.395 85.84 451.089 85.6C450.795 85.36 450.562 85.0667 450.389 84.72C450.215 84.36 450.129 83.9467 450.129 83.48C450.129 82.8667 450.262 82.3533 450.529 81.94C450.809 81.5267 451.182 81.1933 451.649 80.94C452.129 80.6733 452.682 80.4867 453.309 80.38C453.949 80.26 454.629 80.2 455.349 80.2H456.669V79.8C456.669 79.56 456.622 79.32 456.529 79.08C456.435 78.84 456.295 78.6267 456.109 78.44C455.922 78.24 455.689 78.0867 455.409 77.98C455.129 77.86 454.795 77.8 454.409 77.8C454.062 77.8 453.755 77.8333 453.489 77.9C453.235 77.9667 453.002 78.0533 452.789 78.16C452.575 78.2533 452.382 78.3667 452.209 78.5C452.035 78.6333 451.869 78.76 451.709 78.88L450.629 77.76ZM455.709 81.52C455.282 81.52 454.842 81.5467 454.389 81.6C453.949 81.64 453.542 81.7267 453.169 81.86C452.809 81.9933 452.509 82.18 452.269 82.42C452.042 82.66 451.929 82.9667 451.929 83.34C451.929 83.8867 452.109 84.28 452.469 84.52C452.842 84.76 453.342 84.88 453.969 84.88C454.462 84.88 454.882 84.8 455.229 84.64C455.575 84.4667 455.855 84.2467 456.069 83.98C456.282 83.7133 456.435 83.42 456.529 83.1C456.622 82.7667 456.669 82.44 456.669 82.12V81.52H455.709ZM460.96 76.6H462.76V78.06H462.8C463.026 77.5533 463.42 77.1467 463.98 76.84C464.54 76.52 465.186 76.36 465.92 76.36C466.373 76.36 466.806 76.4333 467.22 76.58C467.646 76.7133 468.013 76.9267 468.32 77.22C468.64 77.5133 468.893 77.8933 469.08 78.36C469.266 78.8133 469.36 79.3533 469.36 79.98V86.08H467.56V80.48C467.56 80.04 467.5 79.6667 467.38 79.36C467.26 79.04 467.1 78.7867 466.9 78.6C466.7 78.4 466.466 78.26 466.2 78.18C465.946 78.0867 465.68 78.04 465.4 78.04C465.026 78.04 464.68 78.1 464.36 78.22C464.04 78.34 463.76 78.5333 463.52 78.8C463.28 79.0533 463.093 79.38 462.96 79.78C462.826 80.18 462.76 80.6533 462.76 81.2V86.08H460.96V76.6ZM481.573 86.08H479.773V84.72H479.733C479.386 85.2267 478.906 85.62 478.293 85.9C477.693 86.18 477.073 86.32 476.433 86.32C475.7 86.32 475.033 86.1933 474.433 85.94C473.846 85.6867 473.34 85.3333 472.913 84.88C472.5 84.4267 472.18 83.9 471.953 83.3C471.726 82.7 471.613 82.0467 471.613 81.34C471.613 80.6333 471.726 79.98 471.953 79.38C472.18 78.7667 472.5 78.24 472.913 77.8C473.34 77.3467 473.846 76.9933 474.433 76.74C475.033 76.4867 475.7 76.36 476.433 76.36C477.113 76.36 477.753 76.5067 478.353 76.8C478.953 77.08 479.413 77.4667 479.733 77.96H479.773V70.96H481.573V86.08ZM476.653 84.64C477.133 84.64 477.566 84.56 477.953 84.4C478.34 84.2267 478.666 84 478.933 83.72C479.2 83.4267 479.406 83.08 479.553 82.68C479.7 82.2667 479.773 81.82 479.773 81.34C479.773 80.86 479.7 80.42 479.553 80.02C479.406 79.6067 479.2 79.26 478.933 78.98C478.666 78.6867 478.34 78.46 477.953 78.3C477.566 78.1267 477.133 78.04 476.653 78.04C476.173 78.04 475.74 78.1267 475.353 78.3C474.966 78.46 474.64 78.6867 474.373 78.98C474.106 79.26 473.9 79.6067 473.753 80.02C473.606 80.42 473.533 80.86 473.533 81.34C473.533 81.82 473.606 82.2667 473.753 82.68C473.9 83.08 474.106 83.4267 474.373 83.72C474.64 84 474.966 84.2267 475.353 84.4C475.74 84.56 476.173 84.64 476.653 84.64ZM499.366 86C499.366 86.72 499.239 87.3733 498.986 87.96C498.746 88.56 498.399 89.0733 497.946 89.5C497.493 89.94 496.946 90.28 496.306 90.52C495.666 90.76 494.959 90.88 494.186 90.88C493.279 90.88 492.446 90.7533 491.686 90.5C490.939 90.2467 490.226 89.8067 489.546 89.18L490.766 87.66C491.233 88.1667 491.739 88.5467 492.286 88.8C492.833 89.0667 493.453 89.2 494.146 89.2C494.813 89.2 495.366 89.1 495.806 88.9C496.246 88.7133 496.593 88.4667 496.846 88.16C497.113 87.8533 497.299 87.5 497.406 87.1C497.513 86.7133 497.566 86.32 497.566 85.92V84.52H497.506C497.159 85.0933 496.686 85.52 496.086 85.8C495.499 86.0667 494.879 86.2 494.226 86.2C493.533 86.2 492.886 86.08 492.286 85.84C491.699 85.5867 491.193 85.2467 490.766 84.82C490.339 84.38 490.006 83.8667 489.766 83.28C489.526 82.68 489.406 82.0333 489.406 81.34C489.406 80.6467 489.519 80 489.746 79.4C489.973 78.7867 490.293 78.2533 490.706 77.8C491.133 77.3467 491.639 76.9933 492.226 76.74C492.826 76.4867 493.493 76.36 494.226 76.36C494.866 76.36 495.486 76.5 496.086 76.78C496.699 77.06 497.179 77.4533 497.526 77.96H497.566V76.6H499.366V86ZM494.446 78.04C493.966 78.04 493.533 78.1267 493.146 78.3C492.759 78.46 492.433 78.6867 492.166 78.98C491.899 79.26 491.693 79.6067 491.546 80.02C491.399 80.42 491.326 80.86 491.326 81.34C491.326 82.3 491.606 83.0733 492.166 83.66C492.726 84.2333 493.486 84.52 494.446 84.52C495.406 84.52 496.166 84.2333 496.726 83.66C497.286 83.0733 497.566 82.3 497.566 81.34C497.566 80.86 497.493 80.42 497.346 80.02C497.199 79.6067 496.993 79.26 496.726 78.98C496.459 78.6867 496.133 78.46 495.746 78.3C495.359 78.1267 494.926 78.04 494.446 78.04ZM502.092 76.6H503.892V78.06H503.932C504.052 77.8067 504.212 77.58 504.412 77.38C504.612 77.1667 504.832 76.9867 505.072 76.84C505.326 76.6933 505.599 76.58 505.892 76.5C506.186 76.4067 506.479 76.36 506.772 76.36C507.066 76.36 507.332 76.4 507.572 76.48L507.492 78.42C507.346 78.38 507.199 78.3467 507.052 78.32C506.906 78.2933 506.759 78.28 506.612 78.28C505.732 78.28 505.059 78.5267 504.592 79.02C504.126 79.5133 503.892 80.28 503.892 81.32V86.08H502.092V76.6ZM510.603 81.34C510.603 81.82 510.677 82.2667 510.823 82.68C510.97 83.08 511.177 83.4267 511.443 83.72C511.71 84 512.037 84.2267 512.423 84.4C512.81 84.56 513.243 84.64 513.723 84.64C514.203 84.64 514.637 84.56 515.023 84.4C515.41 84.2267 515.737 84 516.003 83.72C516.27 83.4267 516.477 83.08 516.623 82.68C516.77 82.2667 516.843 81.82 516.843 81.34C516.843 80.86 516.77 80.42 516.623 80.02C516.477 79.6067 516.27 79.26 516.003 78.98C515.737 78.6867 515.41 78.46 515.023 78.3C514.637 78.1267 514.203 78.04 513.723 78.04C513.243 78.04 512.81 78.1267 512.423 78.3C512.037 78.46 511.71 78.6867 511.443 78.98C511.177 79.26 510.97 79.6067 510.823 80.02C510.677 80.42 510.603 80.86 510.603 81.34ZM508.683 81.34C508.683 80.6467 508.81 80 509.063 79.4C509.33 78.8 509.69 78.2733 510.143 77.82C510.597 77.3667 511.13 77.0133 511.743 76.76C512.357 76.4933 513.017 76.36 513.723 76.36C514.43 76.36 515.09 76.4933 515.703 76.76C516.317 77.0133 516.85 77.3667 517.303 77.82C517.757 78.2733 518.11 78.8 518.363 79.4C518.63 80 518.763 80.6467 518.763 81.34C518.763 82.0333 518.63 82.6867 518.363 83.3C518.11 83.9 517.757 84.4267 517.303 84.88C516.85 85.32 516.317 85.6733 515.703 85.94C515.09 86.1933 514.43 86.32 513.723 86.32C513.017 86.32 512.357 86.1933 511.743 85.94C511.13 85.6733 510.597 85.32 510.143 84.88C509.69 84.4267 509.33 83.9 509.063 83.3C508.81 82.6867 508.683 82.0333 508.683 81.34ZM519.878 76.6H521.898L524.038 83.68H524.078L526.338 76.6H528.238L530.638 83.68H530.678L532.718 76.6H534.618L531.558 86.08H529.738L527.238 79H527.198L524.938 86.08H522.998L519.878 76.6ZM540.62 76.6H542.7L545.52 84H545.56L548.24 76.6H550.18L545.68 88.12C545.52 88.5333 545.354 88.9067 545.18 89.24C545.007 89.5867 544.8 89.88 544.56 90.12C544.32 90.36 544.027 90.5467 543.68 90.68C543.347 90.8133 542.934 90.88 542.44 90.88C542.174 90.88 541.9 90.86 541.62 90.82C541.354 90.7933 541.094 90.7267 540.84 90.62L541.06 88.98C541.42 89.1267 541.78 89.2 542.14 89.2C542.42 89.2 542.654 89.16 542.84 89.08C543.04 89.0133 543.207 88.9067 543.34 88.76C543.487 88.6267 543.607 88.4667 543.7 88.28C543.794 88.0933 543.887 87.88 543.98 87.64L544.56 86.14L540.62 76.6ZM553.22 81.34C553.22 81.82 553.294 82.2667 553.44 82.68C553.587 83.08 553.794 83.4267 554.06 83.72C554.327 84 554.654 84.2267 555.04 84.4C555.427 84.56 555.86 84.64 556.34 84.64C556.82 84.64 557.254 84.56 557.64 84.4C558.027 84.2267 558.354 84 558.62 83.72C558.887 83.4267 559.094 83.08 559.24 82.68C559.387 82.2667 559.46 81.82 559.46 81.34C559.46 80.86 559.387 80.42 559.24 80.02C559.094 79.6067 558.887 79.26 558.62 78.98C558.354 78.6867 558.027 78.46 557.64 78.3C557.254 78.1267 556.82 78.04 556.34 78.04C555.86 78.04 555.427 78.1267 555.04 78.3C554.654 78.46 554.327 78.6867 554.06 78.98C553.794 79.26 553.587 79.6067 553.44 80.02C553.294 80.42 553.22 80.86 553.22 81.34ZM551.3 81.34C551.3 80.6467 551.427 80 551.68 79.4C551.947 78.8 552.307 78.2733 552.76 77.82C553.214 77.3667 553.747 77.0133 554.36 76.76C554.974 76.4933 555.634 76.36 556.34 76.36C557.047 76.36 557.707 76.4933 558.32 76.76C558.934 77.0133 559.467 77.3667 559.92 77.82C560.374 78.2733 560.727 78.8 560.98 79.4C561.247 80 561.38 80.6467 561.38 81.34C561.38 82.0333 561.247 82.6867 560.98 83.3C560.727 83.9 560.374 84.4267 559.92 84.88C559.467 85.32 558.934 85.6733 558.32 85.94C557.707 86.1933 557.047 86.32 556.34 86.32C555.634 86.32 554.974 86.1933 554.36 85.94C553.747 85.6733 553.214 85.32 552.76 84.88C552.307 84.4267 551.947 83.9 551.68 83.3C551.427 82.6867 551.3 82.0333 551.3 81.34ZM572.035 86.08H570.235V84.62H570.195C569.969 85.1267 569.575 85.54 569.015 85.86C568.455 86.1667 567.809 86.32 567.075 86.32C566.609 86.32 566.169 86.2467 565.755 86.1C565.342 85.9667 564.975 85.7533 564.655 85.46C564.349 85.1667 564.102 84.7933 563.915 84.34C563.729 83.8733 563.635 83.3267 563.635 82.7V76.6H565.435V82.2C565.435 82.64 565.495 83.02 565.615 83.34C565.735 83.6467 565.895 83.9 566.095 84.1C566.295 84.2867 566.522 84.4267 566.775 84.52C567.042 84.6 567.315 84.64 567.595 84.64C567.969 84.64 568.315 84.58 568.635 84.46C568.955 84.34 569.235 84.1533 569.475 83.9C569.715 83.6333 569.902 83.3 570.035 82.9C570.169 82.5 570.235 82.0267 570.235 81.48V76.6H572.035V86.08ZM574.749 76.6H576.549V78.06H576.589C576.709 77.8067 576.869 77.58 577.069 77.38C577.269 77.1667 577.489 76.9867 577.729 76.84C577.982 76.6933 578.255 76.58 578.549 76.5C578.842 76.4067 579.135 76.36 579.429 76.36C579.722 76.36 579.989 76.4 580.229 76.48L580.149 78.42C580.002 78.38 579.855 78.3467 579.709 78.32C579.562 78.2933 579.415 78.28 579.269 78.28C578.389 78.28 577.715 78.5267 577.249 79.02C576.782 79.5133 576.549 80.28 576.549 81.32V86.08H574.749V76.6ZM587.717 76.6H589.517V77.96H589.557C589.904 77.4533 590.377 77.06 590.977 76.78C591.591 76.5 592.217 76.36 592.857 76.36C593.591 76.36 594.251 76.4867 594.837 76.74C595.437 76.9933 595.944 77.3467 596.357 77.8C596.784 78.2533 597.111 78.7867 597.337 79.4C597.564 80 597.677 80.6467 597.677 81.34C597.677 82.0467 597.564 82.7067 597.337 83.32C597.111 83.92 596.784 84.4467 596.357 84.9C595.944 85.34 595.437 85.6867 594.837 85.94C594.251 86.1933 593.591 86.32 592.857 86.32C592.177 86.32 591.537 86.18 590.937 85.9C590.337 85.6067 589.877 85.2133 589.557 84.72H589.517V91.72H587.717V76.6ZM592.637 78.04C592.157 78.04 591.724 78.1267 591.337 78.3C590.951 78.46 590.624 78.6867 590.357 78.98C590.091 79.26 589.884 79.6067 589.737 80.02C589.591 80.42 589.517 80.86 589.517 81.34C589.517 81.82 589.591 82.2667 589.737 82.68C589.884 83.08 590.091 83.4267 590.357 83.72C590.624 84 590.951 84.2267 591.337 84.4C591.724 84.56 592.157 84.64 592.637 84.64C593.117 84.64 593.551 84.56 593.937 84.4C594.324 84.2267 594.651 84 594.917 83.72C595.184 83.4267 595.391 83.08 595.537 82.68C595.684 82.2667 595.757 81.82 595.757 81.34C595.757 80.86 595.684 80.42 595.537 80.02C595.391 79.6067 595.184 79.26 594.917 78.98C594.651 78.6867 594.324 78.46 593.937 78.3C593.551 78.1267 593.117 78.04 592.637 78.04ZM599.944 76.6H601.744V78.06H601.784C601.904 77.8067 602.064 77.58 602.264 77.38C602.464 77.1667 602.684 76.9867 602.924 76.84C603.177 76.6933 603.451 76.58 603.744 76.5C604.037 76.4067 604.331 76.36 604.624 76.36C604.917 76.36 605.184 76.4 605.424 76.48L605.344 78.42C605.197 78.38 605.051 78.3467 604.904 78.32C604.757 78.2933 604.611 78.28 604.464 78.28C603.584 78.28 602.911 78.5267 602.444 79.02C601.977 79.5133 601.744 80.28 601.744 81.32V86.08H599.944V76.6ZM608.455 81.34C608.455 81.82 608.528 82.2667 608.675 82.68C608.821 83.08 609.028 83.4267 609.295 83.72C609.561 84 609.888 84.2267 610.275 84.4C610.661 84.56 611.095 84.64 611.575 84.64C612.055 84.64 612.488 84.56 612.875 84.4C613.261 84.2267 613.588 84 613.855 83.72C614.121 83.4267 614.328 83.08 614.475 82.68C614.621 82.2667 614.695 81.82 614.695 81.34C614.695 80.86 614.621 80.42 614.475 80.02C614.328 79.6067 614.121 79.26 613.855 78.98C613.588 78.6867 613.261 78.46 612.875 78.3C612.488 78.1267 612.055 78.04 611.575 78.04C611.095 78.04 610.661 78.1267 610.275 78.3C609.888 78.46 609.561 78.6867 609.295 78.98C609.028 79.26 608.821 79.6067 608.675 80.02C608.528 80.42 608.455 80.86 608.455 81.34ZM606.535 81.34C606.535 80.6467 606.661 80 606.915 79.4C607.181 78.8 607.541 78.2733 607.995 77.82C608.448 77.3667 608.981 77.0133 609.595 76.76C610.208 76.4933 610.868 76.36 611.575 76.36C612.281 76.36 612.941 76.4933 613.555 76.76C614.168 77.0133 614.701 77.3667 615.155 77.82C615.608 78.2733 615.961 78.8 616.215 79.4C616.481 80 616.615 80.6467 616.615 81.34C616.615 82.0333 616.481 82.6867 616.215 83.3C615.961 83.9 615.608 84.4267 615.155 84.88C614.701 85.32 614.168 85.6733 613.555 85.94C612.941 86.1933 612.281 86.32 611.575 86.32C610.868 86.32 610.208 86.1933 609.595 85.94C608.981 85.6733 608.448 85.32 607.995 84.88C607.541 84.4267 607.181 83.9 606.915 83.3C606.661 82.6867 606.535 82.0333 606.535 81.34ZM620.81 76.6V87.44C620.81 87.68 620.79 87.9933 620.75 88.38C620.723 88.78 620.616 89.16 620.43 89.52C620.256 89.8933 619.97 90.2133 619.57 90.48C619.183 90.7467 618.63 90.88 617.91 90.88C617.71 90.88 617.516 90.8667 617.33 90.84C617.13 90.8133 616.936 90.7667 616.75 90.7L616.95 89.04C617.056 89.08 617.176 89.1133 617.31 89.14C617.443 89.18 617.57 89.2 617.69 89.2C618.183 89.2 618.523 89.04 618.71 88.72C618.91 88.4133 619.01 87.96 619.01 87.36V76.6H620.81ZM618.59 73.2C618.59 72.84 618.716 72.5333 618.97 72.28C619.236 72.0133 619.55 71.88 619.91 71.88C620.27 71.88 620.576 72.0133 620.83 72.28C621.096 72.5333 621.23 72.84 621.23 73.2C621.23 73.56 621.096 73.8733 620.83 74.14C620.576 74.3933 620.27 74.52 619.91 74.52C619.55 74.52 619.236 74.3933 618.97 74.14C618.716 73.8733 618.59 73.56 618.59 73.2ZM625.034 82C625.034 82.4133 625.121 82.7933 625.294 83.14C625.481 83.4733 625.721 83.76 626.014 84C626.308 84.24 626.648 84.4267 627.034 84.56C627.421 84.6933 627.821 84.76 628.234 84.76C628.794 84.76 629.281 84.6333 629.694 84.38C630.108 84.1133 630.488 83.7667 630.834 83.34L632.194 84.38C631.194 85.6733 629.794 86.32 627.994 86.32C627.248 86.32 626.568 86.1933 625.954 85.94C625.354 85.6867 624.841 85.34 624.414 84.9C624.001 84.4467 623.681 83.92 623.454 83.32C623.228 82.7067 623.114 82.0467 623.114 81.34C623.114 80.6333 623.234 79.98 623.474 79.38C623.728 78.7667 624.068 78.24 624.494 77.8C624.934 77.3467 625.454 76.9933 626.054 76.74C626.654 76.4867 627.308 76.36 628.014 76.36C628.854 76.36 629.561 76.5067 630.134 76.8C630.721 77.0933 631.201 77.48 631.574 77.96C631.948 78.4267 632.214 78.96 632.374 79.56C632.548 80.1467 632.634 80.7467 632.634 81.36V82H625.034ZM630.714 80.56C630.701 80.16 630.634 79.7933 630.514 79.46C630.408 79.1267 630.241 78.84 630.014 78.6C629.788 78.3467 629.501 78.1533 629.154 78.02C628.821 77.8733 628.428 77.8 627.974 77.8C627.534 77.8 627.128 77.8867 626.754 78.06C626.394 78.22 626.088 78.4333 625.834 78.7C625.581 78.9667 625.381 79.2667 625.234 79.6C625.101 79.92 625.034 80.24 625.034 80.56H630.714ZM641.568 79.12C641.234 78.7733 640.881 78.5133 640.508 78.34C640.148 78.1533 639.714 78.06 639.208 78.06C638.714 78.06 638.281 78.1533 637.908 78.34C637.548 78.5133 637.241 78.76 636.988 79.08C636.748 79.3867 636.561 79.7467 636.428 80.16C636.308 80.56 636.248 80.98 636.248 81.42C636.248 81.86 636.321 82.28 636.468 82.68C636.614 83.0667 636.821 83.4067 637.088 83.7C637.354 83.9933 637.674 84.2267 638.048 84.4C638.421 84.56 638.841 84.64 639.308 84.64C639.814 84.64 640.248 84.5533 640.608 84.38C640.968 84.1933 641.301 83.9267 641.608 83.58L642.888 84.86C642.421 85.38 641.874 85.7533 641.248 85.98C640.634 86.2067 639.981 86.32 639.288 86.32C638.554 86.32 637.881 86.2 637.268 85.96C636.668 85.72 636.148 85.3867 635.708 84.96C635.268 84.52 634.928 84 634.688 83.4C634.448 82.7867 634.328 82.1133 634.328 81.38C634.328 80.6467 634.448 79.9733 634.688 79.36C634.928 78.7467 635.261 78.22 635.688 77.78C636.128 77.34 636.648 77 637.248 76.76C637.861 76.5067 638.541 76.38 639.288 76.38C639.981 76.38 640.641 76.5067 641.268 76.76C641.908 77 642.461 77.3733 642.928 77.88L641.568 79.12ZM649.516 78.16H646.936V82.46C646.936 82.7267 646.943 82.9933 646.956 83.26C646.97 83.5133 647.016 83.7467 647.096 83.96C647.19 84.16 647.323 84.3267 647.496 84.46C647.683 84.58 647.95 84.64 648.296 84.64C648.51 84.64 648.73 84.62 648.956 84.58C649.183 84.54 649.39 84.4667 649.576 84.36V86C649.363 86.12 649.083 86.2 648.736 86.24C648.403 86.2933 648.143 86.32 647.956 86.32C647.263 86.32 646.723 86.2267 646.336 86.04C645.963 85.84 645.683 85.5867 645.496 85.28C645.323 84.9733 645.216 84.6333 645.176 84.26C645.15 83.8733 645.136 83.4867 645.136 83.1V78.16H643.056V76.6H645.136V73.94H646.936V76.6H649.516V78.16ZM653.259 86.2C652.899 86.2 652.585 86.0733 652.319 85.82C652.065 85.5533 651.939 85.24 651.939 84.88C651.939 84.52 652.065 84.2133 652.319 83.96C652.585 83.6933 652.899 83.56 653.259 83.56C653.619 83.56 653.925 83.6933 654.179 83.96C654.445 84.2133 654.579 84.52 654.579 84.88C654.579 85.24 654.445 85.5533 654.179 85.82C653.925 86.0733 653.619 86.2 653.259 86.2Z" fill="#1A1A1A"/>
<path d="M10.7626 34.56C8.04259 34.56 5.75459 34.304 3.89859 33.792C2.04259 33.28 0.762594 32.784 0.0585938 32.304L1.01859 27.36V26.4C1.46659 27.008 2.10659 27.648 2.93859 28.32C3.80259 28.992 4.82659 29.568 6.01059 30.048C7.19459 30.496 8.49059 30.72 9.89859 30.72C12.2666 30.72 13.8986 30.224 14.7946 29.232C15.7226 28.24 16.1866 26.496 16.1866 24V8.16C16.1866 7.136 16.0746 6.416 15.8506 6C15.6266 5.552 15.4026 5.312 15.1786 5.28H22.5706C22.3466 5.28 22.1226 5.504 21.8986 5.952C21.6746 6.4 21.5626 7.152 21.5626 8.208V24C21.5626 26.816 21.1146 28.992 20.2186 30.528C19.3546 32.032 18.1066 33.088 16.4746 33.696C14.8746 34.272 12.9706 34.56 10.7626 34.56Z" fill="#1A1A1A"/>
<path d="M39.0376 34.56C35.8376 34.56 33.3256 34.048 31.5016 33.024C29.7096 32 28.4456 30.608 27.7096 28.848C27.0056 27.088 26.6536 25.104 26.6536 22.896C26.6536 20.656 27.0216 18.656 27.7576 16.896C28.5256 15.136 29.8056 13.744 31.5976 12.72C33.3896 11.664 35.8696 11.136 39.0376 11.136C42.2056 11.136 44.6856 11.664 46.4776 12.72C48.2696 13.744 49.5336 15.136 50.2696 16.896C51.0376 18.656 51.4216 20.656 51.4216 22.896C51.4216 25.104 51.0536 27.088 50.3176 28.848C49.6136 30.608 48.3656 32 46.5736 33.024C44.7816 34.048 42.2696 34.56 39.0376 34.56ZM39.0376 31.152C41.0216 31.152 42.5576 30.832 43.6456 30.192C44.7336 29.552 45.4856 28.624 45.9016 27.408C46.3176 26.16 46.5256 24.656 46.5256 22.896C46.5256 21.136 46.3016 19.632 45.8536 18.384C45.4376 17.136 44.6856 16.176 43.5976 15.504C42.5416 14.832 41.0216 14.496 39.0376 14.496C37.0856 14.496 35.5656 14.848 34.4776 15.552C33.3896 16.224 32.6216 17.2 32.1736 18.48C31.7576 19.728 31.5496 21.216 31.5496 22.944C31.5496 24.64 31.7576 26.112 32.1736 27.36C32.5896 28.576 33.3416 29.52 34.4296 30.192C35.5176 30.832 37.0536 31.152 39.0376 31.152Z" fill="#1A1A1A"/>
<path d="M55.3066 34.08C55.5306 34.08 55.7386 33.856 55.9306 33.408C56.1546 32.96 56.2666 32.224 56.2666 31.2V14.496C56.2666 13.472 56.1546 12.752 55.9306 12.336C55.7386 11.888 55.5306 11.648 55.3066 11.616H61.1626V31.2C61.1626 32.224 61.2586 32.96 61.4506 33.408C61.6746 33.856 61.8986 34.08 62.1226 34.08H55.3066ZM58.2346 7.008C57.3066 7.008 56.5866 6.752 56.0746 6.24C55.5626 5.696 55.3066 5.072 55.3066 4.368C55.3066 3.632 55.5466 3.008 56.0266 2.496C56.5386 1.984 57.2746 1.728 58.2346 1.728C59.1946 1.728 59.9146 1.984 60.3946 2.496C60.9066 3.008 61.1626 3.632 61.1626 4.368C61.1626 5.072 60.9066 5.696 60.3946 6.24C59.8826 6.752 59.1626 7.008 58.2346 7.008Z" fill="#1A1A1A"/>
<path d="M66.2285 34.08C66.4525 34.08 66.6605 33.856 66.8525 33.408C67.0765 32.96 67.1885 32.224 67.1885 31.2V14.976C67.1885 13.952 67.0765 13.232 66.8525 12.816C66.6605 12.368 66.4525 12.128 66.2285 12.096C67.6365 12.096 68.8525 12 69.8765 11.808C70.9325 11.584 71.6685 11.36 72.0845 11.136V14.064L71.9885 14.688L72.0845 14.784C72.5645 14.176 73.1725 13.6 73.9085 13.056C74.6765 12.512 75.6205 12.064 76.7405 11.712C77.8605 11.328 79.1725 11.136 80.6765 11.136C83.6525 11.136 85.9245 11.984 87.4925 13.68C89.0925 15.376 89.8925 18.032 89.8925 21.648V31.2C89.8925 32.224 89.9885 32.96 90.1805 33.408C90.4045 33.856 90.6285 34.08 90.8525 34.08H84.0365C84.2605 34.08 84.4685 33.856 84.6605 33.408C84.8845 32.96 84.9965 32.224 84.9965 31.2V21.792C84.9965 19.904 84.7565 18.432 84.2765 17.376C83.7965 16.32 83.1245 15.584 82.2605 15.168C81.4285 14.72 80.4525 14.496 79.3325 14.496C78.1485 14.496 76.9965 14.752 75.8765 15.264C74.7565 15.776 73.8445 16.592 73.1405 17.712C72.4365 18.832 72.0845 20.336 72.0845 22.224V31.2C72.0845 32.224 72.1805 32.96 72.3725 33.408C72.5965 33.856 72.8205 34.08 73.0445 34.08H66.2285Z" fill="#1A1A1A"/>
<path d="M115.854 34.56C113.646 34.56 112.046 34.096 111.054 33.168C110.062 32.208 109.566 30.656 109.566 28.512V14.976H105.246V11.616C106.718 11.616 107.87 11.44 108.702 11.088C109.534 10.704 110.126 10.048 110.478 9.12C110.83 8.192 111.006 6.896 111.006 5.232H114.462V11.616H123.63C123.406 11.936 123.182 12.416 122.958 13.056C122.766 13.664 122.67 14.304 122.67 14.976H114.462V27.792C114.462 29.264 114.734 30.192 115.278 30.576C115.822 30.96 116.51 31.152 117.342 31.152C118.142 31.152 118.878 30.992 119.55 30.672C120.254 30.32 120.862 29.904 121.374 29.424C121.918 28.944 122.334 28.48 122.622 28.032V29.52L123.102 32.256C122.782 32.576 122.286 32.928 121.614 33.312C120.942 33.664 120.126 33.952 119.166 34.176C118.206 34.432 117.102 34.56 115.854 34.56Z" fill="#1A1A1A"/>
<path d="M126.322 34.08C126.546 34.08 126.754 33.856 126.946 33.408C127.17 32.96 127.282 32.224 127.282 31.2V3.84C127.282 2.816 127.17 2.096 126.946 1.68C126.754 1.232 126.546 0.992001 126.322 0.959999H132.178V14.064L132.082 14.688L132.178 14.784C132.658 14.176 133.266 13.6 134.002 13.056C134.77 12.512 135.714 12.064 136.834 11.712C137.954 11.328 139.266 11.136 140.77 11.136C143.746 11.136 146.018 11.984 147.586 13.68C149.186 15.376 149.986 18.032 149.986 21.648V31.2C149.986 32.224 150.082 32.96 150.274 33.408C150.498 33.856 150.722 34.08 150.946 34.08H144.13C144.354 34.08 144.562 33.856 144.754 33.408C144.978 32.96 145.09 32.224 145.09 31.2V21.792C145.09 19.904 144.85 18.432 144.37 17.376C143.89 16.32 143.218 15.584 142.354 15.168C141.522 14.72 140.546 14.496 139.426 14.496C138.242 14.496 137.09 14.752 135.97 15.264C134.85 15.776 133.938 16.592 133.234 17.712C132.53 18.832 132.178 20.336 132.178 22.224V31.2C132.178 32.224 132.274 32.96 132.466 33.408C132.69 33.856 132.914 34.08 133.138 34.08H126.322Z" fill="#1A1A1A"/>
<path d="M167.105 34.56C164.577 34.56 162.497 34.272 160.865 33.696C159.233 33.088 157.953 32.256 157.025 31.2C156.097 30.144 155.441 28.912 155.057 27.504C154.705 26.096 154.529 24.56 154.529 22.896C154.529 19.28 155.553 16.416 157.601 14.304C159.681 12.192 162.753 11.136 166.817 11.136C169.185 11.136 171.089 11.456 172.529 12.096C174.001 12.736 175.105 13.584 175.841 14.64C176.609 15.696 177.121 16.848 177.377 18.096C177.665 19.312 177.809 20.512 177.809 21.696V23.952C177.809 23.856 177.361 23.76 176.465 23.664C175.601 23.536 174.129 23.472 172.049 23.472H159.425C159.425 25.84 160.129 27.712 161.537 29.088C162.945 30.464 165.041 31.152 167.825 31.152C170.225 31.152 172.193 30.864 173.729 30.288C175.297 29.68 176.337 29.088 176.849 28.512V29.472L177.329 32.64C176.625 33.056 175.377 33.488 173.585 33.936C171.825 34.352 169.665 34.56 167.105 34.56ZM161.345 20.304H173.009C173.009 19.472 172.833 18.608 172.481 17.712C172.129 16.816 171.505 16.064 170.609 15.456C169.713 14.816 168.449 14.496 166.817 14.496C165.441 14.496 164.241 14.736 163.217 15.216C162.193 15.664 161.393 16.256 160.817 16.992C160.273 17.728 160.001 18.512 160.001 19.344C160.001 19.664 160.097 19.904 160.289 20.064C160.481 20.224 160.833 20.304 161.345 20.304Z" fill="#1A1A1A"/>
<path d="M194.119 34.08C194.343 34.08 194.567 33.856 194.791 33.408C195.015 32.96 195.127 32.224 195.127 31.2V8.16C195.127 7.136 195.015 6.416 194.791 6C194.567 5.552 194.343 5.312 194.119 5.28H201.511C201.287 5.28 201.063 5.504 200.839 5.952C200.615 6.4 200.503 7.152 200.503 8.208V16.032C200.503 16.736 200.583 17.152 200.743 17.28C200.935 17.408 201.511 17.472 202.471 17.472H216.823C217.783 17.472 218.343 17.424 218.503 17.328C218.663 17.2 218.743 16.768 218.743 16.032V8.16C218.743 7.136 218.631 6.416 218.407 6C218.183 5.552 217.959 5.312 217.735 5.28H225.127C224.903 5.28 224.679 5.504 224.455 5.952C224.231 6.4 224.119 7.152 224.119 8.208V31.2C224.119 32.224 224.231 32.96 224.455 33.408C224.679 33.856 224.903 34.08 225.127 34.08H217.735C217.959 34.08 218.183 33.856 218.407 33.408C218.631 32.96 218.743 32.224 218.743 31.2V22.752C218.743 22.016 218.647 21.6 218.455 21.504C218.295 21.376 217.751 21.312 216.823 21.312H202.471C201.511 21.312 200.935 21.376 200.743 21.504C200.583 21.632 200.503 22.048 200.503 22.752V31.2C200.503 32.224 200.615 32.96 200.839 33.408C201.063 33.856 201.287 34.08 201.511 34.08H194.119Z" fill="#1A1A1A"/>
<path d="M230.485 45.792C228.565 45.792 227.045 45.6 225.925 45.216C224.805 44.832 224.085 44.464 223.765 44.112L224.725 39.072V37.632C224.949 38.304 225.317 39.008 225.829 39.744C226.309 40.512 226.933 41.152 227.701 41.664C228.469 42.176 229.333 42.432 230.293 42.432C231.381 42.432 232.309 42.208 233.077 41.76C233.845 41.344 234.517 40.736 235.093 39.936C235.701 39.136 236.277 38.208 236.821 37.152C237.461 35.872 237.861 34.992 238.021 34.512C237.829 34.256 237.525 33.664 237.109 32.736C236.693 31.808 236.197 30.688 235.621 29.376C235.045 28.032 234.437 26.608 233.797 25.104C233.189 23.6 232.581 22.144 231.973 20.736C231.365 19.328 230.821 18.08 230.341 16.992C229.861 15.904 229.493 15.12 229.237 14.64C228.693 13.616 228.197 12.864 227.749 12.384C227.301 11.904 226.981 11.648 226.789 11.616H234.613C234.357 11.616 234.181 11.856 234.085 12.336C234.021 12.784 234.197 13.552 234.613 14.64C234.869 15.248 235.221 16.128 235.669 17.28C236.117 18.4 236.613 19.68 237.157 21.12C237.701 22.528 238.261 23.968 238.837 25.44C239.413 26.88 239.941 28.224 240.421 29.472H240.469C240.981 28.16 241.541 26.752 242.149 25.248C242.757 23.744 243.349 22.272 243.925 20.832C244.533 19.392 245.061 18.112 245.509 16.992C245.989 15.872 246.341 15.056 246.565 14.544C247.013 13.52 247.189 12.784 247.093 12.336C246.997 11.888 246.821 11.648 246.565 11.616H254.101C253.909 11.648 253.605 11.888 253.189 12.336C252.805 12.752 252.357 13.472 251.845 14.496C251.557 15.04 251.109 15.968 250.501 17.28C249.925 18.592 249.253 20.096 248.485 21.792C247.717 23.488 246.933 25.248 246.133 27.072C245.333 28.864 244.581 30.56 243.877 32.16C243.173 33.728 242.581 35.024 242.101 36.048C241.109 38.192 240.053 39.984 238.933 41.424C237.845 42.896 236.613 43.984 235.237 44.688C233.861 45.424 232.277 45.792 230.485 45.792Z" fill="#1A1A1A"/>
<path d="M256.307 44.736C256.531 44.736 256.739 44.512 256.931 44.064C257.155 43.616 257.267 42.88 257.267 41.856V14.496C257.267 13.472 257.155 12.752 256.931 12.336C256.739 11.888 256.531 11.648 256.307 11.616H262.163V12.576L262.067 13.488L262.163 13.584C262.579 13.168 263.139 12.784 263.843 12.432C264.579 12.048 265.443 11.744 266.435 11.52C267.427 11.264 268.499 11.136 269.651 11.136C272.627 11.136 274.979 11.664 276.707 12.72C278.435 13.744 279.667 15.136 280.403 16.896C281.171 18.656 281.555 20.656 281.555 22.896C281.555 25.104 281.187 27.088 280.451 28.848C279.715 30.608 278.483 32 276.755 33.024C275.027 34.048 272.659 34.56 269.651 34.56C267.891 34.56 266.403 34.352 265.187 33.936C264.003 33.52 262.995 32.944 262.163 32.208L262.067 32.256L262.163 33.168V41.856C262.163 42.88 262.259 43.616 262.451 44.064C262.675 44.512 262.899 44.736 263.123 44.736H256.307ZM269.171 31.152C271.155 31.152 272.691 30.832 273.779 30.192C274.867 29.552 275.619 28.624 276.035 27.408C276.451 26.16 276.659 24.656 276.659 22.896C276.659 21.136 276.435 19.632 275.987 18.384C275.571 17.136 274.819 16.176 273.731 15.504C272.675 14.832 271.155 14.496 269.171 14.496C267.251 14.496 265.779 14.88 264.755 15.648C263.763 16.416 263.075 17.44 262.691 18.72C262.339 20 262.163 21.408 262.163 22.944C262.163 24.512 262.355 25.92 262.739 27.168C263.155 28.416 263.859 29.392 264.851 30.096C265.875 30.8 267.315 31.152 269.171 31.152Z" fill="#1A1A1A"/>
<path d="M297.511 34.56C294.983 34.56 292.903 34.272 291.271 33.696C289.639 33.088 288.359 32.256 287.431 31.2C286.503 30.144 285.847 28.912 285.463 27.504C285.111 26.096 284.935 24.56 284.935 22.896C284.935 19.28 285.959 16.416 288.007 14.304C290.087 12.192 293.159 11.136 297.223 11.136C299.591 11.136 301.495 11.456 302.935 12.096C304.407 12.736 305.511 13.584 306.247 14.64C307.015 15.696 307.527 16.848 307.783 18.096C308.071 19.312 308.215 20.512 308.215 21.696V23.952C308.215 23.856 307.767 23.76 306.871 23.664C306.007 23.536 304.535 23.472 302.455 23.472H289.831C289.831 25.84 290.535 27.712 291.943 29.088C293.351 30.464 295.447 31.152 298.231 31.152C300.631 31.152 302.599 30.864 304.135 30.288C305.703 29.68 306.743 29.088 307.255 28.512V29.472L307.735 32.64C307.031 33.056 305.783 33.488 303.991 33.936C302.231 34.352 300.071 34.56 297.511 34.56ZM291.751 20.304H303.415C303.415 19.472 303.239 18.608 302.887 17.712C302.535 16.816 301.911 16.064 301.015 15.456C300.119 14.816 298.855 14.496 297.223 14.496C295.847 14.496 294.647 14.736 293.623 15.216C292.599 15.664 291.799 16.256 291.223 16.992C290.679 17.728 290.407 18.512 290.407 19.344C290.407 19.664 290.503 19.904 290.695 20.064C290.887 20.224 291.239 20.304 291.751 20.304Z" fill="#1A1A1A"/>
<path d="M312.322 34.08C312.546 34.08 312.754 33.856 312.946 33.408C313.17 32.96 313.282 32.224 313.282 31.2V14.976C313.282 13.952 313.17 13.232 312.946 12.816C312.754 12.368 312.546 12.128 312.322 12.096C313.73 12.096 314.946 12 315.97 11.808C317.026 11.584 317.762 11.36 318.178 11.136V13.536L318.082 14.352L318.178 14.448C318.658 13.808 319.234 13.248 319.906 12.768C320.61 12.256 321.41 11.856 322.306 11.568C323.202 11.28 324.226 11.136 325.378 11.136C326.882 11.136 328.178 11.36 329.266 11.808C330.386 12.224 331.186 12.656 331.666 13.104L330.706 17.136V18.576C330.29 18.064 329.682 17.536 328.882 16.992C328.114 16.416 327.234 15.936 326.242 15.552C325.25 15.168 324.194 14.976 323.074 14.976C321.794 14.976 320.658 15.488 319.666 16.512C318.674 17.536 318.178 19.232 318.178 21.6V31.2C318.178 32.224 318.274 32.96 318.466 33.408C318.69 33.856 318.914 34.08 319.138 34.08H312.322Z" fill="#1A1A1A"/>
<path d="M347.254 34.56C344.246 34.56 341.718 34.4 339.67 34.08C337.654 33.76 336.278 33.44 335.542 33.12V32.16L334.534 28.032C335.366 28.704 336.822 29.408 338.902 30.144C341.014 30.848 343.574 31.2 346.582 31.2C348.566 31.2 350.054 31.072 351.046 30.816C352.038 30.528 352.694 30.16 353.014 29.712C353.334 29.232 353.494 28.704 353.494 28.128C353.494 27.456 353.254 26.928 352.774 26.544C352.326 26.128 351.462 25.792 350.182 25.536C348.934 25.248 347.078 24.96 344.614 24.672C341.926 24.352 339.846 23.888 338.374 23.28C336.934 22.672 335.942 21.904 335.398 20.976C334.854 20.016 334.582 18.88 334.582 17.568C334.582 16.544 334.854 15.536 335.398 14.544C335.942 13.552 336.95 12.736 338.422 12.096C339.926 11.456 342.054 11.136 344.806 11.136C347.782 11.136 350.278 11.296 352.294 11.616C354.342 11.936 355.734 12.256 356.47 12.576V13.536L357.43 17.184C356.63 16.608 355.174 16.016 353.062 15.408C350.95 14.8 348.406 14.496 345.43 14.496C343.062 14.496 341.478 14.768 340.678 15.312C339.878 15.824 339.478 16.496 339.478 17.328C339.478 17.808 339.574 18.24 339.766 18.624C339.958 18.976 340.342 19.296 340.918 19.584C341.526 19.872 342.422 20.128 343.606 20.352C344.822 20.576 346.438 20.8 348.454 21.024C351.174 21.312 353.238 21.76 354.646 22.368C356.054 22.976 357.014 23.744 357.526 24.672C358.07 25.568 358.342 26.624 358.342 27.84C358.342 29.152 357.974 30.32 357.238 31.344C356.534 32.336 355.366 33.12 353.734 33.696C352.102 34.272 349.942 34.56 347.254 34.56Z" fill="#1A1A1A"/>
<path d="M374.677 34.56C371.349 34.56 368.725 34.048 366.805 33.024C364.917 32 363.589 30.608 362.821 28.848C362.053 27.088 361.669 25.104 361.669 22.896C361.669 18.992 362.725 16.064 364.837 14.112C366.981 12.16 370.101 11.184 374.197 11.184C376.693 11.184 378.789 11.344 380.485 11.664C382.181 11.984 383.349 12.288 383.989 12.576V13.536L384.949 17.712C384.309 17.04 383.093 16.352 381.301 15.648C379.509 14.912 377.253 14.544 374.533 14.544C373.157 14.544 371.845 14.784 370.597 15.264C369.381 15.712 368.389 16.544 367.621 17.76C366.885 18.976 366.517 20.704 366.517 22.944C366.517 25.12 366.917 26.816 367.717 28.032C368.517 29.216 369.621 30.032 371.029 30.48C372.437 30.928 374.037 31.152 375.829 31.152C378.101 31.152 379.973 30.8 381.445 30.096C382.949 29.392 383.957 28.704 384.469 28.032V28.992L384.949 32.256C384.341 32.768 383.141 33.28 381.349 33.792C379.589 34.304 377.365 34.56 374.677 34.56Z" fill="#1A1A1A"/>
<path d="M398.225 34.56C394.737 34.56 392.289 33.936 390.881 32.688C389.473 31.408 388.769 29.696 388.769 27.552C388.769 26.048 389.137 24.768 389.873 23.712C390.641 22.624 391.777 21.792 393.281 21.216C394.817 20.64 396.753 20.352 399.089 20.352C400.753 20.352 402.193 20.48 403.409 20.736C404.657 20.96 405.665 21.232 406.433 21.552C407.233 21.872 407.793 22.144 408.113 22.368C408.113 20.48 407.873 18.96 407.393 17.808C406.945 16.656 406.209 15.824 405.185 15.312C404.161 14.768 402.769 14.496 401.009 14.496C399.121 14.496 397.425 14.72 395.921 15.168C394.449 15.584 393.265 16.048 392.369 16.56C391.473 17.04 390.913 17.392 390.689 17.616V16.656L390.209 13.056C390.497 12.928 391.121 12.72 392.081 12.432C393.041 12.112 394.305 11.824 395.873 11.568C397.441 11.28 399.281 11.136 401.393 11.136C404.081 11.136 406.273 11.52 407.969 12.288C409.697 13.024 410.961 14.176 411.761 15.744C412.593 17.28 413.009 19.232 413.009 21.6V31.2C413.009 32.096 413.105 32.752 413.297 33.168C413.521 33.552 413.745 33.856 413.969 34.08H408.113V32.64L408.209 31.728L408.113 31.68C407.601 32.16 406.993 32.576 406.289 32.928C405.585 33.28 404.817 33.584 403.985 33.84C403.153 34.064 402.241 34.24 401.249 34.368C400.289 34.496 399.281 34.56 398.225 34.56ZM399.809 31.152C401.537 31.152 403.025 30.976 404.273 30.624C405.521 30.272 406.465 29.808 407.105 29.232C407.777 28.624 408.113 27.936 408.113 27.168C408.113 26.208 407.473 25.392 406.193 24.72C404.945 24.048 402.993 23.712 400.337 23.712C397.873 23.712 396.129 24.032 395.105 24.672C394.113 25.312 393.617 26.272 393.617 27.552C393.617 28.8 394.097 29.712 395.057 30.288C396.049 30.864 397.633 31.152 399.809 31.152Z" fill="#1A1A1A"/>
<path d="M418.311 34.08C418.535 34.08 418.743 33.856 418.935 33.408C419.159 32.96 419.271 32.224 419.271 31.2V3.84C419.271 2.816 419.159 2.096 418.935 1.68C418.743 1.232 418.535 0.992001 418.311 0.959999C419.719 0.959999 420.935 0.863999 421.959 0.672C423.015 0.448001 423.751 0.224001 424.167 0V31.2C424.167 32.224 424.263 32.96 424.455 33.408C424.679 33.856 424.903 34.08 425.127 34.08H418.311Z" fill="#1A1A1A"/>
<path d="M441.792 34.56C439.264 34.56 437.184 34.272 435.552 33.696C433.92 33.088 432.64 32.256 431.712 31.2C430.784 30.144 430.128 28.912 429.744 27.504C429.392 26.096 429.216 24.56 429.216 22.896C429.216 19.28 430.24 16.416 432.288 14.304C434.368 12.192 437.44 11.136 441.504 11.136C443.872 11.136 445.776 11.456 447.216 12.096C448.688 12.736 449.792 13.584 450.528 14.64C451.296 15.696 451.808 16.848 452.064 18.096C452.352 19.312 452.496 20.512 452.496 21.696V23.952C452.496 23.856 452.048 23.76 451.152 23.664C450.288 23.536 448.816 23.472 446.736 23.472H434.112C434.112 25.84 434.816 27.712 436.224 29.088C437.632 30.464 439.728 31.152 442.512 31.152C444.912 31.152 446.88 30.864 448.416 30.288C449.984 29.68 451.024 29.088 451.536 28.512V29.472L452.016 32.64C451.312 33.056 450.064 33.488 448.272 33.936C446.512 34.352 444.352 34.56 441.792 34.56ZM436.032 20.304H447.696C447.696 19.472 447.52 18.608 447.168 17.712C446.816 16.816 446.192 16.064 445.296 15.456C444.4 14.816 443.136 14.496 441.504 14.496C440.128 14.496 438.928 14.736 437.904 15.216C436.88 15.664 436.08 16.256 435.504 16.992C434.96 17.728 434.688 18.512 434.688 19.344C434.688 19.664 434.784 19.904 434.976 20.064C435.168 20.224 435.52 20.304 436.032 20.304Z" fill="#1A1A1A"/>
<path d="M468.807 34.08C469.031 34.08 469.255 33.856 469.479 33.408C469.703 32.96 469.815 32.224 469.815 31.2V8.16C469.815 7.136 469.703 6.416 469.479 6C469.255 5.552 469.031 5.312 468.807 5.28H495.831V6.24L496.791 10.848C495.991 10.496 494.583 10.128 492.567 9.744C490.551 9.328 488.119 9.12 485.271 9.12H477.159C476.199 9.12 475.623 9.2 475.431 9.36C475.271 9.488 475.191 9.888 475.191 10.56V16.032C475.191 16.736 475.271 17.152 475.431 17.28C475.623 17.408 476.183 17.472 477.111 17.472H485.031C486.887 17.472 488.375 17.376 489.495 17.184C490.647 16.96 491.399 16.736 491.751 16.512C491.623 16.928 491.479 17.424 491.319 18C491.159 18.576 491.031 19.152 490.935 19.728C490.839 20.304 490.791 20.832 490.791 21.312H477.111C476.183 21.312 475.623 21.376 475.431 21.504C475.271 21.6 475.191 22.016 475.191 22.752V28.704C475.191 29.44 475.271 29.872 475.431 30C475.591 30.128 476.151 30.192 477.111 30.192H491.079C492.935 30.192 494.423 29.984 495.543 29.568C496.695 29.12 497.447 28.688 497.799 28.272L496.839 32.592V34.08H468.807Z" fill="#1A1A1A"/>
<path d="M513.427 34.56C510.099 34.56 507.475 34.048 505.555 33.024C503.667 32 502.339 30.608 501.571 28.848C500.803 27.088 500.419 25.104 500.419 22.896C500.419 18.992 501.475 16.064 503.587 14.112C505.731 12.16 508.851 11.184 512.947 11.184C515.443 11.184 517.539 11.344 519.235 11.664C520.931 11.984 522.099 12.288 522.739 12.576V13.536L523.699 17.712C523.059 17.04 521.843 16.352 520.051 15.648C518.259 14.912 516.003 14.544 513.283 14.544C511.907 14.544 510.595 14.784 509.347 15.264C508.131 15.712 507.139 16.544 506.371 17.76C505.635 18.976 505.267 20.704 505.267 22.944C505.267 25.12 505.667 26.816 506.467 28.032C507.267 29.216 508.371 30.032 509.779 30.48C511.187 30.928 512.787 31.152 514.579 31.152C516.851 31.152 518.723 30.8 520.195 30.096C521.699 29.392 522.707 28.704 523.219 28.032V28.992L523.699 32.256C523.091 32.768 521.891 33.28 520.099 33.792C518.339 34.304 516.115 34.56 513.427 34.56Z" fill="#1A1A1A"/>
<path d="M539.663 34.56C536.463 34.56 533.951 34.048 532.127 33.024C530.335 32 529.071 30.608 528.335 28.848C527.631 27.088 527.279 25.104 527.279 22.896C527.279 20.656 527.647 18.656 528.383 16.896C529.151 15.136 530.431 13.744 532.223 12.72C534.015 11.664 536.495 11.136 539.663 11.136C542.831 11.136 545.311 11.664 547.103 12.72C548.895 13.744 550.159 15.136 550.895 16.896C551.663 18.656 552.047 20.656 552.047 22.896C552.047 25.104 551.679 27.088 550.943 28.848C550.239 30.608 548.991 32 547.199 33.024C545.407 34.048 542.895 34.56 539.663 34.56ZM539.663 31.152C541.647 31.152 543.183 30.832 544.271 30.192C545.359 29.552 546.111 28.624 546.527 27.408C546.943 26.16 547.151 24.656 547.151 22.896C547.151 21.136 546.927 19.632 546.479 18.384C546.063 17.136 545.311 16.176 544.223 15.504C543.167 14.832 541.647 14.496 539.663 14.496C537.711 14.496 536.191 14.848 535.103 15.552C534.015 16.224 533.247 17.2 532.799 18.48C532.383 19.728 532.175 21.216 532.175 22.944C532.175 24.64 532.383 26.112 532.799 27.36C533.215 28.576 533.967 29.52 535.055 30.192C536.143 30.832 537.679 31.152 539.663 31.152Z" fill="#1A1A1A"/>
<path d="M568.364 34.56C565.356 34.56 562.828 34.4 560.78 34.08C558.764 33.76 557.388 33.44 556.652 33.12V32.16L555.644 28.032C556.476 28.704 557.932 29.408 560.012 30.144C562.124 30.848 564.684 31.2 567.692 31.2C569.676 31.2 571.164 31.072 572.156 30.816C573.148 30.528 573.804 30.16 574.124 29.712C574.444 29.232 574.604 28.704 574.604 28.128C574.604 27.456 574.364 26.928 573.884 26.544C573.436 26.128 572.572 25.792 571.292 25.536C570.044 25.248 568.188 24.96 565.724 24.672C563.036 24.352 560.956 23.888 559.484 23.28C558.044 22.672 557.052 21.904 556.508 20.976C555.964 20.016 555.692 18.88 555.692 17.568C555.692 16.544 555.964 15.536 556.508 14.544C557.052 13.552 558.06 12.736 559.532 12.096C561.036 11.456 563.164 11.136 565.916 11.136C568.892 11.136 571.388 11.296 573.404 11.616C575.452 11.936 576.844 12.256 577.58 12.576V13.536L578.54 17.184C577.74 16.608 576.284 16.016 574.172 15.408C572.06 14.8 569.516 14.496 566.54 14.496C564.172 14.496 562.588 14.768 561.788 15.312C560.988 15.824 560.588 16.496 560.588 17.328C560.588 17.808 560.684 18.24 560.876 18.624C561.068 18.976 561.452 19.296 562.028 19.584C562.636 19.872 563.532 20.128 564.716 20.352C565.932 20.576 567.548 20.8 569.564 21.024C572.284 21.312 574.348 21.76 575.756 22.368C577.164 22.976 578.124 23.744 578.636 24.672C579.18 25.568 579.452 26.624 579.452 27.84C579.452 29.152 579.084 30.32 578.348 31.344C577.644 32.336 576.476 33.12 574.844 33.696C573.212 34.272 571.052 34.56 568.364 34.56Z" fill="#1A1A1A"/>
<path d="M583.595 45.792C581.675 45.792 580.155 45.6 579.035 45.216C577.915 44.832 577.195 44.464 576.875 44.112L577.835 39.072V37.632C578.059 38.304 578.427 39.008 578.939 39.744C579.419 40.512 580.043 41.152 580.811 41.664C581.579 42.176 582.443 42.432 583.403 42.432C584.491 42.432 585.419 42.208 586.187 41.76C586.955 41.344 587.627 40.736 588.203 39.936C588.811 39.136 589.387 38.208 589.931 37.152C590.571 35.872 590.971 34.992 591.131 34.512C590.939 34.256 590.635 33.664 590.219 32.736C589.803 31.808 589.307 30.688 588.731 29.376C588.155 28.032 587.547 26.608 586.907 25.104C586.299 23.6 585.691 22.144 585.083 20.736C584.475 19.328 583.931 18.08 583.451 16.992C582.971 15.904 582.603 15.12 582.347 14.64C581.803 13.616 581.307 12.864 580.859 12.384C580.411 11.904 580.091 11.648 579.899 11.616H587.723C587.467 11.616 587.291 11.856 587.195 12.336C587.131 12.784 587.307 13.552 587.723 14.64C587.979 15.248 588.331 16.128 588.779 17.28C589.227 18.4 589.723 19.68 590.267 21.12C590.811 22.528 591.371 23.968 591.947 25.44C592.523 26.88 593.051 28.224 593.531 29.472H593.579C594.091 28.16 594.651 26.752 595.259 25.248C595.867 23.744 596.459 22.272 597.035 20.832C597.643 19.392 598.171 18.112 598.619 16.992C599.099 15.872 599.451 15.056 599.675 14.544C600.123 13.52 600.299 12.784 600.203 12.336C600.107 11.888 599.931 11.648 599.675 11.616H607.211C607.019 11.648 606.715 11.888 606.299 12.336C605.915 12.752 605.467 13.472 604.955 14.496C604.667 15.04 604.219 15.968 603.611 17.28C603.035 18.592 602.363 20.096 601.595 21.792C600.827 23.488 600.043 25.248 599.243 27.072C598.443 28.864 597.691 30.56 596.987 32.16C596.283 33.728 595.691 35.024 595.211 36.048C594.219 38.192 593.163 39.984 592.043 41.424C590.955 42.896 589.723 43.984 588.347 44.688C586.971 45.424 585.387 45.792 583.595 45.792Z" fill="#1A1A1A"/>
<path d="M621.848 34.56C618.84 34.56 616.312 34.4 614.264 34.08C612.248 33.76 610.872 33.44 610.136 33.12V32.16L609.128 28.032C609.96 28.704 611.416 29.408 613.496 30.144C615.608 30.848 618.168 31.2 621.176 31.2C623.16 31.2 624.648 31.072 625.64 30.816C626.632 30.528 627.288 30.16 627.608 29.712C627.928 29.232 628.088 28.704 628.088 28.128C628.088 27.456 627.848 26.928 627.368 26.544C626.92 26.128 626.056 25.792 624.776 25.536C623.528 25.248 621.672 24.96 619.208 24.672C616.52 24.352 614.44 23.888 612.968 23.28C611.528 22.672 610.536 21.904 609.992 20.976C609.448 20.016 609.176 18.88 609.176 17.568C609.176 16.544 609.448 15.536 609.992 14.544C610.536 13.552 611.544 12.736 613.016 12.096C614.52 11.456 616.648 11.136 619.4 11.136C622.376 11.136 624.872 11.296 626.888 11.616C628.936 11.936 630.328 12.256 631.064 12.576V13.536L632.024 17.184C631.224 16.608 629.768 16.016 627.656 15.408C625.544 14.8 623 14.496 620.024 14.496C617.656 14.496 616.072 14.768 615.272 15.312C614.472 15.824 614.072 16.496 614.072 17.328C614.072 17.808 614.168 18.24 614.36 18.624C614.552 18.976 614.936 19.296 615.512 19.584C616.12 19.872 617.016 20.128 618.2 20.352C619.416 20.576 621.032 20.8 623.048 21.024C625.768 21.312 627.832 21.76 629.24 22.368C630.648 22.976 631.608 23.744 632.12 24.672C632.664 25.568 632.936 26.624 632.936 27.84C632.936 29.152 632.568 30.32 631.832 31.344C631.128 32.336 629.96 33.12 628.328 33.696C626.696 34.272 624.536 34.56 621.848 34.56Z" fill="#1A1A1A"/>
<path d="M646.151 34.56C643.943 34.56 642.343 34.096 641.351 33.168C640.359 32.208 639.863 30.656 639.863 28.512V14.976H635.543V11.616C637.015 11.616 638.167 11.44 638.999 11.088C639.831 10.704 640.423 10.048 640.775 9.12C641.127 8.192 641.303 6.896 641.303 5.232H644.759V11.616H653.927C653.703 11.936 653.479 12.416 653.255 13.056C653.063 13.664 652.967 14.304 652.967 14.976H644.759V27.792C644.759 29.264 645.031 30.192 645.575 30.576C646.119 30.96 646.807 31.152 647.639 31.152C648.439 31.152 649.175 30.992 649.847 30.672C650.551 30.32 651.159 29.904 651.671 29.424C652.215 28.944 652.631 28.48 652.919 28.032V29.52L653.399 32.256C653.079 32.576 652.583 32.928 651.911 33.312C651.239 33.664 650.423 33.952 649.463 34.176C648.503 34.432 647.399 34.56 646.151 34.56Z" fill="#1A1A1A"/>
<path d="M668.667 34.56C666.139 34.56 664.059 34.272 662.427 33.696C660.795 33.088 659.515 32.256 658.587 31.2C657.659 30.144 657.003 28.912 656.619 27.504C656.267 26.096 656.091 24.56 656.091 22.896C656.091 19.28 657.115 16.416 659.163 14.304C661.243 12.192 664.315 11.136 668.379 11.136C670.747 11.136 672.651 11.456 674.091 12.096C675.563 12.736 676.667 13.584 677.403 14.64C678.171 15.696 678.683 16.848 678.939 18.096C679.227 19.312 679.371 20.512 679.371 21.696V23.952C679.371 23.856 678.923 23.76 678.027 23.664C677.163 23.536 675.691 23.472 673.611 23.472H660.987C660.987 25.84 661.691 27.712 663.099 29.088C664.507 30.464 666.603 31.152 669.387 31.152C671.787 31.152 673.755 30.864 675.291 30.288C676.859 29.68 677.899 29.088 678.411 28.512V29.472L678.891 32.64C678.187 33.056 676.939 33.488 675.147 33.936C673.387 34.352 671.227 34.56 668.667 34.56ZM662.907 20.304H674.571C674.571 19.472 674.395 18.608 674.043 17.712C673.691 16.816 673.067 16.064 672.171 15.456C671.275 14.816 670.011 14.496 668.379 14.496C667.003 14.496 665.803 14.736 664.779 15.216C663.755 15.664 662.955 16.256 662.379 16.992C661.835 17.728 661.563 18.512 661.563 19.344C661.563 19.664 661.659 19.904 661.851 20.064C662.043 20.224 662.395 20.304 662.907 20.304Z" fill="#1A1A1A"/>
<path d="M683.478 34.08C683.702 34.08 683.91 33.856 684.102 33.408C684.326 32.96 684.438 32.224 684.438 31.2V14.976C684.438 13.952 684.326 13.232 684.102 12.816C683.91 12.368 683.702 12.128 683.478 12.096C684.886 12.096 686.102 12 687.126 11.808C688.182 11.584 688.918 11.36 689.334 11.136V14.064L689.238 14.688L689.334 14.784C689.814 14.176 690.342 13.6 690.918 13.056C691.526 12.512 692.31 12.064 693.27 11.712C694.23 11.328 695.462 11.136 696.966 11.136C699.942 11.136 702.214 11.984 703.782 13.68C705.382 15.376 706.182 18.032 706.182 21.648V31.2C706.182 32.224 706.278 32.96 706.47 33.408C706.694 33.856 706.918 34.08 707.142 34.08H700.326C700.55 34.08 700.758 33.856 700.95 33.408C701.174 32.96 701.286 32.224 701.286 31.2V21.792C701.286 19.904 701.046 18.432 700.566 17.376C700.086 16.32 699.414 15.584 698.55 15.168C697.718 14.72 696.742 14.496 695.622 14.496C694.438 14.496 693.366 14.752 692.406 15.264C691.446 15.776 690.694 16.592 690.15 17.712C689.606 18.832 689.334 20.336 689.334 22.224V31.2C689.334 32.224 689.43 32.96 689.622 33.408C689.846 33.856 690.07 34.08 690.294 34.08H683.478ZM717.126 34.08C717.35 34.08 717.558 33.856 717.75 33.408C717.974 32.96 718.086 32.224 718.086 31.2V21.792C718.086 19.904 717.846 18.432 717.366 17.376C716.886 16.32 716.214 15.584 715.35 15.168C714.518 14.72 713.542 14.496 712.422 14.496C710.566 14.496 709.062 15.088 707.91 16.272C706.758 17.424 706.182 19.392 706.182 22.176L704.214 17.376C704.31 17.024 704.534 16.512 704.886 15.84C705.27 15.168 705.814 14.48 706.518 13.776C707.254 13.04 708.198 12.416 709.35 11.904C710.534 11.392 712.006 11.136 713.766 11.136C715.75 11.136 717.43 11.52 718.806 12.288C720.182 13.024 721.222 14.16 721.926 15.696C722.63 17.232 722.982 19.216 722.982 21.648V31.2C722.982 32.224 723.078 32.96 723.27 33.408C723.494 33.856 723.718 34.08 723.942 34.08H717.126Z" fill="#1A1A1A"/>
</svg>
