<svg width="174" height="76" viewBox="0 0 174 76" fill="none" xmlns="http://www.w3.org/2000/svg">
<path d="M0.178125 20.08C0.327458 20.08 0.476792 19.9307 0.626125 19.632C0.775458 19.3334 0.850125 18.8427 0.850125 18.16V2.80002C0.850125 2.11735 0.775458 1.63735 0.626125 1.36002C0.476792 1.06135 0.327458 0.901349 0.178125 0.880016H6.45013C6.30079 0.880016 6.15146 1.02935 6.00213 1.32802C5.85279 1.62668 5.77813 2.12802 5.77813 2.83202V7.72802C5.77813 8.19735 5.83146 8.47468 5.93813 8.56002C6.06613 8.64535 6.45013 8.68802 7.09013 8.68802H15.3141C15.9541 8.68802 16.3275 8.65602 16.4341 8.59202C16.5408 8.50668 16.5941 8.21868 16.5941 7.72802V2.80002C16.5941 2.11735 16.5195 1.63735 16.3701 1.36002C16.2208 1.06135 16.0715 0.901349 15.9221 0.880016H22.1941C22.0448 0.880016 21.8955 1.02935 21.7461 1.32802C21.5968 1.62668 21.5221 2.12802 21.5221 2.83202V18.16C21.5221 18.8427 21.5968 19.3334 21.7461 19.632C21.8955 19.9307 22.0448 20.08 22.1941 20.08H15.9221C16.0715 20.08 16.2208 19.9307 16.3701 19.632C16.5195 19.3334 16.5941 18.8427 16.5941 18.16V13.168C16.5941 12.6774 16.5301 12.4 16.4021 12.336C16.2955 12.2507 15.9328 12.208 15.3141 12.208H7.09013C6.45013 12.208 6.06613 12.2507 5.93813 12.336C5.83146 12.4214 5.77813 12.6987 5.77813 13.168V18.16C5.77813 18.8427 5.85279 19.3334 6.00213 19.632C6.15146 19.9307 6.30079 20.08 6.45013 20.08H0.178125ZM25.5889 27.888C24.3089 27.888 23.2955 27.76 22.5489 27.504C21.8022 27.248 21.3222 27.0027 21.1089 26.768L21.7489 21.808V20.848C22.0049 21.4027 22.3569 21.9787 22.8049 22.576C23.2315 23.1734 23.7329 23.6747 24.3089 24.08C24.8849 24.4854 25.4822 24.688 26.1009 24.688C26.5275 24.688 26.9115 24.592 27.2529 24.4C27.6155 24.2294 27.9462 23.952 28.2449 23.568C28.5649 23.184 28.8742 22.704 29.1729 22.128C29.5995 21.2747 29.8662 20.688 29.9729 20.368C29.8449 20.1974 29.6315 19.8027 29.3329 19.184C29.0555 18.5654 28.7142 17.8187 28.3089 16.944C27.9249 16.048 27.5089 15.1094 27.0609 14.128C26.6342 13.1254 26.2182 12.1547 25.8129 11.216C25.4289 10.2774 25.0769 9.44535 24.7569 8.72002C24.4582 7.99468 24.2342 7.46135 24.0849 7.12002C23.7862 6.39468 23.4875 5.88268 23.1889 5.58402C22.8689 5.26402 22.6235 5.10402 22.4529 5.10402H29.0129C28.9062 5.10402 28.8315 5.25335 28.7889 5.55202C28.7462 5.85068 28.8209 6.37335 29.0129 7.12002C29.1195 7.52535 29.2902 8.10135 29.5249 8.84802C29.7595 9.57335 30.0262 10.3734 30.3249 11.248C30.6449 12.1227 30.9649 13.008 31.2849 13.904C31.6262 14.8 31.9355 15.6214 32.2129 16.368H32.2449C32.5435 15.5787 32.8529 14.7254 33.1729 13.808C33.5142 12.8694 33.8449 11.952 34.1649 11.056C34.5062 10.16 34.7942 9.36002 35.0289 8.65602C35.2849 7.95202 35.4769 7.41868 35.6049 7.05602C35.8395 6.33068 35.9355 5.82935 35.8929 5.55202C35.8502 5.25335 35.7542 5.10402 35.6049 5.10402H41.9729C41.8022 5.10402 41.5675 5.25335 41.2689 5.55202C40.9915 5.82935 40.7249 6.32002 40.4689 7.02402C40.3195 7.40802 40.0742 8.03735 39.7329 8.91202C39.3915 9.78668 38.9862 10.7893 38.5169 11.92C38.0475 13.0507 37.5569 14.2134 37.0449 15.408C36.5329 16.6027 36.0315 17.7334 35.5409 18.8C35.0715 19.8454 34.6555 20.7094 34.2929 21.392C33.5675 22.8 32.8102 23.984 32.0209 24.944C31.2315 25.904 30.3249 26.6294 29.3009 27.12C28.2769 27.632 27.0395 27.888 25.5889 27.888ZM43.0486 27.184C43.198 27.184 43.3366 27.0347 43.4646 26.736C43.614 26.4374 43.6886 25.9467 43.6886 25.264V7.02402C43.6886 6.34135 43.614 5.86135 43.4646 5.58402C43.3366 5.28535 43.198 5.12535 43.0486 5.10402H48.2326V5.36002L48.1686 5.96802L48.2326 6.00002C48.446 5.80802 48.7553 5.62668 49.1606 5.45602C49.5873 5.26402 50.0673 5.10402 50.6006 4.97602C51.1553 4.84802 51.71 4.78402 52.2646 4.78402C54.2486 4.78402 55.7846 5.13602 56.8726 5.84002C57.982 6.52268 58.7606 7.45068 59.2086 8.62402C59.6566 9.79735 59.8806 11.1307 59.8806 12.624C59.8806 14.096 59.6566 15.4187 59.2086 16.592C58.782 17.7654 58.014 18.6934 56.9046 19.376C55.8166 20.0587 54.27 20.4 52.2646 20.4C51.4326 20.4 50.654 20.2934 49.9286 20.08C49.2246 19.888 48.6593 19.6 48.2326 19.216L48.1686 19.248L48.2326 19.888V25.264C48.2326 25.9467 48.2966 26.4374 48.4246 26.736C48.574 27.0347 48.7233 27.184 48.8726 27.184H43.0486ZM51.6246 17.168C52.5206 17.168 53.2353 17.04 53.7686 16.784C54.3233 16.5067 54.718 16.0374 54.9526 15.376C55.2086 14.7147 55.3366 13.7974 55.3366 12.624C55.3366 11.4507 55.2086 10.5333 54.9526 9.87202C54.718 9.18935 54.3233 8.70935 53.7686 8.43202C53.2353 8.13335 52.5206 7.98402 51.6246 7.98402C50.9206 7.98402 50.3126 8.15468 49.8006 8.49602C49.2886 8.81602 48.894 9.31735 48.6166 10C48.3606 10.6827 48.2326 11.568 48.2326 12.656C48.2326 13.7654 48.3713 14.6507 48.6486 15.312C48.926 15.9734 49.31 16.4534 49.8006 16.752C50.3126 17.0294 50.9206 17.168 51.6246 17.168ZM70.4921 20.4C68.8068 20.4 67.3988 20.2294 66.2681 19.888C65.1588 19.5254 64.2735 19.0134 63.6121 18.352C62.9508 17.6694 62.4815 16.848 62.2041 15.888C61.9268 14.928 61.7881 13.84 61.7881 12.624C61.7881 10.2133 62.4601 8.30402 63.8041 6.89602C65.1481 5.48802 67.2068 4.78402 69.9801 4.78402C71.6015 4.78402 72.9135 5.00802 73.9161 5.45602C74.9401 5.90402 75.7188 6.50135 76.2521 7.24802C76.7855 7.99468 77.1481 8.82668 77.3401 9.74402C77.5535 10.64 77.6601 11.5467 77.6601 12.464V13.968C77.6601 13.904 77.3615 13.84 76.7641 13.776C76.1881 13.6907 75.2068 13.648 73.8201 13.648H66.3961C66.3961 14.8214 66.7481 15.7067 67.4521 16.304C68.1775 16.88 69.3508 17.168 70.9721 17.168C72.3375 17.168 73.5535 17.008 74.6201 16.688C75.7081 16.3467 76.4975 16.0267 76.9881 15.728V16.688L77.3081 19.12C76.9028 19.3974 76.1241 19.6854 74.9721 19.984C73.8201 20.2614 72.3268 20.4 70.4921 20.4ZM67.5801 10.896H73.1161C73.1161 10.4267 73.0095 9.96802 72.7961 9.52002C72.6041 9.07202 72.2841 8.70935 71.8361 8.43202C71.3881 8.13335 70.7695 7.98402 69.9801 7.98402C69.1908 7.98402 68.5508 8.10135 68.0601 8.33602C67.5908 8.57068 67.2388 8.85868 67.0041 9.20002C66.7908 9.54135 66.6841 9.89335 66.6841 10.256C66.6841 10.4693 66.7481 10.6293 66.8761 10.736C67.0041 10.8427 67.2388 10.896 67.5801 10.896ZM80.3611 20.08C80.5105 20.08 80.6491 19.9307 80.7771 19.632C80.9265 19.3334 81.0011 18.8427 81.0011 18.16V7.34402C81.0011 6.66135 80.9265 6.18135 80.7771 5.90402C80.6491 5.60535 80.5105 5.44535 80.3611 5.42402C81.2998 5.42402 82.2598 5.36002 83.2411 5.23202C84.2225 5.08268 84.9905 4.93335 85.5451 4.78402V6.06402L85.4811 6.60802L85.5451 6.67202C85.6945 6.43735 85.9291 6.18135 86.2491 5.90402C86.5905 5.60535 87.0171 5.34935 87.5291 5.13602C88.0625 4.90135 88.6811 4.78402 89.3851 4.78402C90.4305 4.78402 91.3585 4.93335 92.1691 5.23202C92.9798 5.50935 93.5558 5.79735 93.8971 6.09602L92.9371 10.384V11.344C92.6171 10.896 92.1798 10.4374 91.6251 9.96802C91.0918 9.49868 90.4945 9.10402 89.8331 8.78402C89.1931 8.46402 88.5318 8.30402 87.8491 8.30402C87.0811 8.30402 86.5051 8.58135 86.1211 9.13602C85.7371 9.69068 85.5451 10.5653 85.5451 11.76V18.16C85.5451 18.8427 85.6091 19.3334 85.7371 19.632C85.8865 19.9307 86.0358 20.08 86.1851 20.08H80.3611ZM103.834 20.08C103.984 20.08 104.133 19.9307 104.282 19.632C104.432 19.3334 104.506 18.8427 104.506 18.16V2.80002C104.506 2.11735 104.432 1.63735 104.282 1.36002C104.133 1.06135 103.984 0.901349 103.834 0.880016H122.522V1.84002L123.162 5.55202C122.629 5.31735 121.69 5.07202 120.346 4.81602C119.002 4.53868 117.381 4.40002 115.482 4.40002H110.746C110.106 4.40002 109.722 4.45335 109.594 4.56002C109.488 4.64535 109.434 4.91202 109.434 5.36002V7.72802C109.434 8.19735 109.488 8.47468 109.594 8.56002C109.722 8.64535 110.096 8.68802 110.714 8.68802H115.322C116.56 8.68802 117.552 8.62402 118.298 8.49602C119.066 8.34668 119.568 8.19735 119.802 8.04802C119.717 8.45335 119.621 8.92268 119.514 9.45602C119.408 9.98935 119.322 10.5014 119.258 10.992C119.194 11.4827 119.162 11.888 119.162 12.208H110.714C110.096 12.208 109.722 12.2507 109.594 12.336C109.488 12.4 109.434 12.6774 109.434 13.168V18.16C109.434 18.864 109.509 19.3654 109.658 19.664C109.808 19.9414 109.957 20.08 110.106 20.08H103.834ZM129.787 20.4C127.867 20.4 126.331 20.0267 125.179 19.28C124.048 18.512 123.483 17.2854 123.483 15.6C123.483 14.4267 123.782 13.4774 124.379 12.752C124.976 12.0267 125.787 11.4934 126.811 11.152C127.856 10.7894 129.04 10.608 130.363 10.608C131.344 10.608 132.176 10.6934 132.859 10.864C133.563 11.0347 134.128 11.216 134.555 11.408C134.982 11.6 135.259 11.7387 135.387 11.824C135.387 10.928 135.291 10.2027 135.099 9.64802C134.907 9.07202 134.555 8.65602 134.043 8.40002C133.552 8.12268 132.859 7.98402 131.963 7.98402C130.662 7.98402 129.51 8.11202 128.507 8.36802C127.504 8.62402 126.683 8.92268 126.043 9.26402C125.424 9.60535 124.998 9.89335 124.763 10.128V9.16802L124.443 6.03202C124.592 5.94668 124.987 5.80802 125.627 5.61602C126.267 5.42402 127.142 5.24268 128.251 5.07202C129.36 4.88002 130.683 4.78402 132.219 4.78402C134.331 4.78402 135.942 5.09335 137.051 5.71202C138.16 6.30935 138.918 7.17335 139.323 8.30402C139.75 9.43468 139.963 10.8 139.963 12.4V18.16C139.963 18.7574 140.027 19.1947 140.155 19.472C140.304 19.728 140.454 19.9307 140.603 20.08H135.419V19.408L135.483 18.8L135.419 18.736C135.248 18.928 135.003 19.12 134.683 19.312C134.363 19.504 133.968 19.6854 133.499 19.856C133.03 20.0054 132.486 20.1334 131.867 20.24C131.248 20.3467 130.555 20.4 129.787 20.4ZM131.291 17.168C132.187 17.168 132.934 17.104 133.531 16.976C134.15 16.8267 134.619 16.6347 134.939 16.4C135.259 16.144 135.419 15.8454 135.419 15.504C135.419 15.0134 135.046 14.608 134.299 14.288C133.574 13.968 132.582 13.808 131.323 13.808C130.107 13.808 129.243 13.9787 128.731 14.32C128.24 14.6614 127.995 15.088 127.995 15.6C127.995 16.24 128.283 16.6667 128.859 16.88C129.435 17.072 130.246 17.168 131.291 17.168ZM151.268 20.4C149.369 20.4 147.769 20.2934 146.468 20.08C145.167 19.8667 144.271 19.6534 143.78 19.44V18.48L143.108 15.344C143.663 15.7494 144.697 16.1547 146.212 16.56C147.727 16.9654 149.583 17.168 151.78 17.168C152.441 17.168 152.964 17.1254 153.348 17.04C153.753 16.9547 154.041 16.816 154.212 16.624C154.383 16.432 154.468 16.1867 154.468 15.888C154.468 15.5254 154.329 15.248 154.052 15.056C153.796 14.864 153.327 14.7147 152.644 14.608C151.961 14.48 150.969 14.3307 149.668 14.16C148.025 13.9467 146.724 13.648 145.764 13.264C144.804 12.8587 144.121 12.3467 143.716 11.728C143.332 11.088 143.14 10.3094 143.14 9.39202C143.14 8.53868 143.343 7.77068 143.748 7.08802C144.175 6.38402 144.9 5.82935 145.924 5.42402C146.969 4.99735 148.42 4.78402 150.276 4.78402C152.025 4.78402 153.561 4.89068 154.884 5.10402C156.207 5.31735 157.156 5.53068 157.732 5.74402V6.70402L158.372 9.52002C157.881 9.20002 156.921 8.86935 155.492 8.52802C154.063 8.18668 152.249 8.01602 150.052 8.01602C149.199 8.01602 148.591 8.10135 148.228 8.27202C147.865 8.44268 147.684 8.74135 147.684 9.16802C147.684 9.38135 147.737 9.56268 147.844 9.71202C147.972 9.86135 148.207 10 148.548 10.128C148.889 10.256 149.38 10.384 150.02 10.512C150.66 10.6187 151.503 10.736 152.548 10.864C154.361 11.0987 155.727 11.4294 156.644 11.856C157.561 12.2614 158.18 12.7734 158.5 13.392C158.82 13.9894 158.98 14.7147 158.98 15.568C158.98 16.656 158.703 17.5627 158.148 18.288C157.615 18.992 156.772 19.5254 155.62 19.888C154.489 20.2294 153.039 20.4 151.268 20.4ZM167.603 20.4C166.131 20.4 165.064 20.0907 164.403 19.472C163.741 18.832 163.411 17.7974 163.411 16.368V8.30402H160.531V5.10402C161.512 5.10402 162.28 4.98668 162.835 4.75202C163.389 4.49602 163.784 4.05868 164.019 3.44002C164.253 2.82135 164.371 1.95735 164.371 0.848017H167.955V5.10402H173.427C173.277 5.53068 173.128 6.06402 172.979 6.70402C172.851 7.32268 172.787 7.85602 172.787 8.30402H167.955V14.608C167.955 15.5894 168.029 16.2614 168.179 16.624C168.328 16.9867 168.68 17.168 169.235 17.168C169.597 17.168 169.992 17.04 170.419 16.784C170.867 16.528 171.293 16.2187 171.699 15.856C172.125 15.472 172.477 15.1094 172.755 14.768V15.76L173.075 18.864C172.819 19.0774 172.435 19.312 171.923 19.568C171.411 19.8027 170.781 19.9947 170.035 20.144C169.309 20.3147 168.499 20.4 167.603 20.4ZM28.475 68.08C28.6243 68.08 28.7737 67.9307 28.923 67.632C29.0723 67.3334 29.147 66.8427 29.147 66.16V50.8C29.147 50.1173 29.0723 49.6373 28.923 49.36C28.7737 49.0613 28.6243 48.9013 28.475 48.88H47.163V49.84L47.803 53.552C47.2697 53.3173 46.331 53.072 44.987 52.816C43.643 52.5387 42.0217 52.4 40.123 52.4H35.387C34.747 52.4 34.363 52.4534 34.235 52.56C34.1283 52.6453 34.075 52.912 34.075 53.36V55.728C34.075 56.1973 34.1283 56.4747 34.235 56.56C34.363 56.6454 34.7363 56.688 35.355 56.688H39.963C41.2003 56.688 42.1923 56.624 42.939 56.496C43.707 56.3467 44.2083 56.1973 44.443 56.048C44.3577 56.4533 44.2617 56.9227 44.155 57.456C44.0483 57.9894 43.963 58.5014 43.899 58.992C43.835 59.4827 43.803 59.888 43.803 60.208H35.355C34.7363 60.208 34.363 60.2507 34.235 60.336C34.1283 60.4 34.075 60.6774 34.075 61.168V66.16C34.075 66.864 34.1497 67.3654 34.299 67.664C34.4483 67.9414 34.5977 68.08 34.747 68.08H28.475ZM56.3095 68.4C55.0722 68.4 54.0162 68.1867 53.1415 67.76C52.2668 67.312 51.6055 66.5547 51.1575 65.488C50.7095 64.4 50.4855 62.896 50.4855 60.976V55.024C50.4855 54.3413 50.4108 53.8507 50.2615 53.552C50.1335 53.2533 49.9948 53.104 49.8455 53.104H55.7335C55.5842 53.104 55.4242 53.2533 55.2535 53.552C55.1042 53.8507 55.0295 54.3413 55.0295 55.024V61.424C55.0295 62.768 55.2748 63.728 55.7655 64.304C56.2775 64.88 56.8642 65.168 57.5255 65.168C58.4642 65.168 59.1895 64.9547 59.7015 64.528C60.2135 64.08 60.5762 63.504 60.7895 62.8C61.0028 62.0747 61.1095 61.3173 61.1095 60.528V55.024C61.1095 54.3413 61.0348 53.8613 60.8855 53.584C60.7575 53.2854 60.6188 53.1253 60.4695 53.104H65.6535V66.16C65.6535 66.8427 65.7175 67.3334 65.8455 67.632C65.9948 67.9307 66.1442 68.08 66.2935 68.08H61.1095V66.832L61.1735 66.192L61.1095 66.128C60.8962 66.448 60.6295 66.7467 60.3095 67.024C59.9895 67.3014 59.6268 67.5467 59.2215 67.76C58.8162 67.952 58.3682 68.1014 57.8775 68.208C57.3868 68.336 56.8642 68.4 56.3095 68.4ZM68.908 68.08C69.0573 68.08 69.196 67.9307 69.324 67.632C69.4733 67.3334 69.548 66.8427 69.548 66.16V55.344C69.548 54.6613 69.4733 54.1814 69.324 53.904C69.196 53.6053 69.0573 53.4453 68.908 53.424C69.8467 53.424 70.8067 53.36 71.788 53.232C72.7693 53.0827 73.5373 52.9333 74.092 52.784V54.736L74.028 55.152L74.092 55.216C74.156 55.0667 74.3587 54.8 74.7 54.416C75.0413 54.032 75.532 53.6693 76.172 53.328C76.812 52.9653 77.6013 52.784 78.54 52.784C80.524 52.784 82.0387 53.3493 83.084 54.48C84.1507 55.6107 84.684 57.3814 84.684 59.792V66.16C84.684 66.8427 84.748 67.3334 84.876 67.632C85.0253 67.9307 85.1747 68.08 85.324 68.08H79.5C79.6493 68.08 79.788 67.9307 79.916 67.632C80.0653 67.3334 80.14 66.8427 80.14 66.16V59.888C80.14 58.8854 80.0333 58.1067 79.82 57.552C79.6067 56.976 79.308 56.5707 78.924 56.336C78.5613 56.1013 78.1347 55.984 77.644 55.984C77.0467 55.984 76.4707 56.1333 75.916 56.432C75.3827 56.7093 74.9453 57.1573 74.604 57.776C74.2627 58.3734 74.092 59.1734 74.092 60.176V66.16C74.092 66.8427 74.156 67.3334 74.284 67.632C74.4333 67.9307 74.5827 68.08 74.732 68.08H68.908ZM94.8833 68.4C92.9846 68.4 91.4913 68.0587 90.4033 67.376C89.3366 66.6934 88.5793 65.7654 88.1313 64.592C87.7046 63.4187 87.4913 62.096 87.4913 60.624C87.4913 59.1307 87.7046 57.7974 88.1313 56.624C88.5793 55.4507 89.3366 54.5227 90.4033 53.84C91.4913 53.136 92.9846 52.784 94.8833 52.784C95.5233 52.784 96.0993 52.8373 96.6113 52.944C97.1446 53.0507 97.6139 53.2 98.0193 53.392C98.4459 53.5627 98.8193 53.7867 99.1393 54.064L99.2033 54.032L99.1393 53.424V47.92C99.1393 47.2373 99.0646 46.7573 98.9153 46.48C98.7873 46.1814 98.6486 46.0213 98.4993 46H103.683V66.16C103.683 66.8427 103.747 67.3334 103.875 67.632C104.025 67.9307 104.174 68.08 104.323 68.08H99.1393V67.664L99.2353 67.056L99.1393 67.024C98.8193 67.3014 98.4459 67.5467 98.0193 67.76C97.5926 67.952 97.1126 68.1014 96.5793 68.208C96.0673 68.336 95.5019 68.4 94.8833 68.4ZM95.4273 65.168C96.1313 65.168 96.7179 65.0614 97.1873 64.848C97.6779 64.6347 98.0619 64.336 98.3393 63.952C98.6379 63.5467 98.8406 63.0667 98.9473 62.512C99.0753 61.936 99.1393 61.3067 99.1393 60.624C99.1393 59.9413 99.0753 59.3227 98.9473 58.768C98.8193 58.192 98.6166 57.7013 98.3393 57.296C98.0619 56.8693 97.6779 56.5493 97.1873 56.336C96.7179 56.1013 96.1313 55.984 95.4273 55.984C94.4033 55.984 93.5713 56.336 92.9313 57.04C92.3126 57.744 92.0033 58.9494 92.0033 60.656C92.0033 61.7867 92.1419 62.6827 92.4193 63.344C92.6966 64.0054 93.0913 64.4747 93.6033 64.752C94.1153 65.0294 94.7233 65.168 95.4273 65.168ZM107.346 68.08C107.495 68.08 107.644 67.9307 107.794 67.632C107.943 67.3334 108.018 66.8427 108.018 66.16V55.024C108.018 54.3413 107.943 53.8507 107.794 53.552C107.666 53.2533 107.527 53.104 107.378 53.104H112.562V66.16C112.562 66.8427 112.626 67.3334 112.754 67.632C112.903 67.9307 113.052 68.08 113.202 68.08H107.346ZM109.938 50.672C109.148 50.672 108.519 50.4587 108.049 50.032C107.58 49.6053 107.346 49.0187 107.346 48.272C107.346 47.5253 107.57 46.9387 108.018 46.512C108.487 46.0854 109.127 45.872 109.938 45.872C110.748 45.872 111.378 46.0854 111.826 46.512C112.295 46.9387 112.53 47.5253 112.53 48.272C112.53 49.0187 112.295 49.6053 111.826 50.032C111.378 50.4587 110.748 50.672 109.938 50.672ZM116.096 68.08C116.245 68.08 116.384 67.9307 116.512 67.632C116.661 67.3334 116.736 66.8427 116.736 66.16V55.344C116.736 54.6613 116.661 54.1814 116.512 53.904C116.384 53.6053 116.245 53.4453 116.096 53.424C117.034 53.424 117.994 53.36 118.976 53.232C119.957 53.0827 120.725 52.9333 121.28 52.784V54.736L121.216 55.152L121.28 55.216C121.344 55.0667 121.546 54.8 121.888 54.416C122.229 54.032 122.72 53.6693 123.36 53.328C124 52.9653 124.789 52.784 125.728 52.784C127.712 52.784 129.226 53.3493 130.272 54.48C131.338 55.6107 131.872 57.3814 131.872 59.792V66.16C131.872 66.8427 131.936 67.3334 132.064 67.632C132.213 67.9307 132.362 68.08 132.512 68.08H126.688C126.837 68.08 126.976 67.9307 127.104 67.632C127.253 67.3334 127.328 66.8427 127.328 66.16V59.888C127.328 58.8854 127.221 58.1067 127.008 57.552C126.794 56.976 126.496 56.5707 126.112 56.336C125.749 56.1013 125.322 55.984 124.832 55.984C124.234 55.984 123.658 56.1333 123.104 56.432C122.57 56.7093 122.133 57.1573 121.792 57.776C121.45 58.3734 121.28 59.1734 121.28 60.176V66.16C121.28 66.8427 121.344 67.3334 121.472 67.632C121.621 67.9307 121.77 68.08 121.92 68.08H116.096ZM142.839 75.888C141.601 75.888 140.46 75.8027 139.415 75.632C138.391 75.4614 137.495 75.248 136.727 74.992C135.98 74.7574 135.404 74.5227 134.999 74.288L135.639 69.488V68.56C135.937 69.136 136.407 69.744 137.047 70.384C137.687 71.024 138.487 71.568 139.447 72.016C140.407 72.464 141.495 72.688 142.711 72.688C143.5 72.688 144.161 72.5174 144.695 72.176C145.228 71.856 145.633 71.3547 145.911 70.672C146.188 69.9894 146.327 69.1467 146.327 68.144V67.632L146.391 67.056L146.327 66.992C146.028 67.312 145.623 67.5787 145.111 67.792C144.62 67.984 144.076 68.1334 143.479 68.24C142.903 68.3467 142.327 68.4 141.751 68.4C140.023 68.4 138.636 68.0587 137.591 67.376C136.567 66.6934 135.82 65.7654 135.351 64.592C134.903 63.4187 134.679 62.096 134.679 60.624C134.679 59.1307 134.903 57.7974 135.351 56.624C135.799 55.4507 136.535 54.5227 137.559 53.84C138.604 53.136 140.001 52.784 141.751 52.784C142.348 52.784 142.935 52.8267 143.511 52.912C144.087 52.9973 144.62 53.1253 145.111 53.296C145.601 53.4454 146.007 53.6587 146.327 53.936L146.391 53.904L146.327 53.296V53.104H151.511C151.361 53.1253 151.212 53.2854 151.063 53.584C150.935 53.8827 150.871 54.384 150.871 55.088V67.344C150.871 70.4374 150.209 72.6347 148.887 73.936C147.585 75.2374 145.569 75.888 142.839 75.888ZM142.615 65.168C143.361 65.168 144.012 65.04 144.567 64.784C145.121 64.528 145.548 64.0694 145.847 63.408C146.167 62.7467 146.327 61.8187 146.327 60.624C146.327 59.4507 146.167 58.5333 145.847 57.872C145.548 57.1894 145.121 56.7093 144.567 56.432C144.012 56.1333 143.361 55.984 142.615 55.984C141.911 55.984 141.303 56.1333 140.791 56.432C140.279 56.7307 139.884 57.2213 139.607 57.904C139.329 58.5867 139.191 59.504 139.191 60.656C139.191 61.7867 139.319 62.6827 139.575 63.344C139.852 64.0054 140.247 64.4747 140.759 64.752C141.271 65.0294 141.889 65.168 142.615 65.168Z" fill="#1A1A1A"/>
</svg>
