<svg width="245" height="79" viewBox="0 0 245 79" fill="none" xmlns="http://www.w3.org/2000/svg">
<path d="M8.15025 23.08C8.29958 23.08 8.44892 22.9307 8.59825 22.632C8.74758 22.3334 8.82225 21.8427 8.82225 21.16V8.36002C8.82225 7.89068 8.76892 7.61335 8.66225 7.52802C8.55558 7.44268 8.18225 7.40002 7.54225 7.40002H5.20625C3.96892 7.40002 2.96625 7.53868 2.19825 7.81602C1.45158 8.07202 0.960917 8.31735 0.72625 8.55202L1.36625 4.84002V3.88002H21.2063V4.84002L21.8463 8.55202C21.6116 8.31735 21.1103 8.07202 20.3423 7.81602C19.5956 7.53868 18.6036 7.40002 17.3663 7.40002H15.0623C14.4009 7.40002 14.0169 7.44268 13.9103 7.52802C13.8036 7.61335 13.7503 7.89068 13.7503 8.36002V21.16C13.7503 21.8427 13.8249 22.3334 13.9743 22.632C14.1236 22.9307 14.2729 23.08 14.4223 23.08H8.15025ZM23.5643 23.08C23.7136 23.08 23.8523 22.9307 23.9803 22.632C24.1296 22.3334 24.2043 21.8427 24.2043 21.16V2.92002C24.2043 2.23735 24.1296 1.75735 23.9803 1.48002C23.8523 1.18135 23.7136 1.02135 23.5643 1.00002H28.7483V9.73602L28.6843 10.152L28.7483 10.216C28.8123 10.0667 29.0149 9.80002 29.3563 9.41602C29.6976 9.03202 30.1883 8.66935 30.8283 8.32802C31.4683 7.96535 32.2576 7.78402 33.1963 7.78402C35.1803 7.78402 36.6949 8.34935 37.7403 9.48002C38.8069 10.6107 39.3403 12.3814 39.3403 14.792V21.16C39.3403 21.8427 39.4043 22.3334 39.5323 22.632C39.6816 22.9307 39.8309 23.08 39.9803 23.08H34.1563C34.3056 23.08 34.4443 22.9307 34.5723 22.632C34.7216 22.3334 34.7963 21.8427 34.7963 21.16V14.888C34.7963 13.8854 34.6896 13.1067 34.4763 12.552C34.2629 11.976 33.9643 11.5707 33.5803 11.336C33.2176 11.1013 32.7909 10.984 32.3003 10.984C31.7029 10.984 31.1269 11.1333 30.5723 11.432C30.0389 11.7093 29.6016 12.1573 29.2603 12.776C28.9189 13.3734 28.7483 14.1734 28.7483 15.176V21.16C28.7483 21.8427 28.8123 22.3334 28.9403 22.632C29.0896 22.9307 29.2389 23.08 29.3883 23.08H23.5643ZM50.8515 23.4C49.1662 23.4 47.7582 23.2294 46.6275 22.888C45.5182 22.5254 44.6328 22.0134 43.9715 21.352C43.3102 20.6694 42.8408 19.848 42.5635 18.888C42.2862 17.928 42.1475 16.84 42.1475 15.624C42.1475 13.2133 42.8195 11.304 44.1635 9.89602C45.5075 8.48802 47.5662 7.78402 50.3395 7.78402C51.9608 7.78402 53.2728 8.00802 54.2755 8.45602C55.2995 8.90402 56.0782 9.50135 56.6115 10.248C57.1448 10.9947 57.5075 11.8267 57.6995 12.744C57.9128 13.64 58.0195 14.5467 58.0195 15.464V16.968C58.0195 16.904 57.7208 16.84 57.1235 16.776C56.5475 16.6907 55.5662 16.648 54.1795 16.648H46.7555C46.7555 17.8214 47.1075 18.7067 47.8115 19.304C48.5368 19.88 49.7102 20.168 51.3315 20.168C52.6968 20.168 53.9128 20.008 54.9795 19.688C56.0675 19.3467 56.8568 19.0267 57.3475 18.728V19.688L57.6675 22.12C57.2622 22.3974 56.4835 22.6854 55.3315 22.984C54.1795 23.2614 52.6862 23.4 50.8515 23.4ZM47.9395 13.896H53.4755C53.4755 13.4267 53.3688 12.968 53.1555 12.52C52.9635 12.072 52.6435 11.7093 52.1955 11.432C51.7475 11.1333 51.1288 10.984 50.3395 10.984C49.5502 10.984 48.9102 11.1013 48.4195 11.336C47.9502 11.5707 47.5982 11.8587 47.3635 12.2C47.1502 12.5414 47.0435 12.8934 47.0435 13.256C47.0435 13.4693 47.1075 13.6293 47.2355 13.736C47.3635 13.8427 47.5982 13.896 47.9395 13.896ZM68.6 23.08C68.7493 23.08 68.8987 22.9307 69.048 22.632C69.1973 22.3334 69.272 21.8427 69.272 21.16V5.80002C69.272 5.11735 69.1973 4.63735 69.048 4.36002C68.8987 4.06135 68.7493 3.90135 68.6 3.88002H74.872C74.7227 3.88002 74.5733 4.02935 74.424 4.32802C74.2747 4.62668 74.2 5.12802 74.2 5.83202V10.728C74.2 11.1973 74.2533 11.4747 74.36 11.56C74.488 11.6454 74.872 11.688 75.512 11.688H83.736C84.376 11.688 84.7493 11.656 84.856 11.592C84.9627 11.5067 85.016 11.2187 85.016 10.728V5.80002C85.016 5.11735 84.9413 4.63735 84.792 4.36002C84.6427 4.06135 84.4933 3.90135 84.344 3.88002H90.616C90.4667 3.88002 90.3173 4.02935 90.168 4.32802C90.0187 4.62668 89.944 5.12802 89.944 5.83202V21.16C89.944 21.8427 90.0187 22.3334 90.168 22.632C90.3173 22.9307 90.4667 23.08 90.616 23.08H84.344C84.4933 23.08 84.6427 22.9307 84.792 22.632C84.9413 22.3334 85.016 21.8427 85.016 21.16V16.168C85.016 15.6774 84.952 15.4 84.824 15.336C84.7173 15.2507 84.3547 15.208 83.736 15.208H75.512C74.872 15.208 74.488 15.2507 74.36 15.336C74.2533 15.4214 74.2 15.6987 74.2 16.168V21.16C74.2 21.8427 74.2747 22.3334 74.424 22.632C74.5733 22.9307 74.7227 23.08 74.872 23.08H68.6ZM94.0108 30.888C92.7308 30.888 91.7174 30.76 90.9707 30.504C90.2241 30.248 89.7441 30.0027 89.5307 29.768L90.1707 24.808V23.848C90.4267 24.4027 90.7787 24.9787 91.2267 25.576C91.6534 26.1734 92.1547 26.6747 92.7308 27.08C93.3068 27.4854 93.9041 27.688 94.5228 27.688C94.9494 27.688 95.3334 27.592 95.6748 27.4C96.0374 27.2294 96.3681 26.952 96.6668 26.568C96.9868 26.184 97.2961 25.704 97.5948 25.128C98.0214 24.2747 98.2881 23.688 98.3948 23.368C98.2668 23.1974 98.0534 22.8027 97.7548 22.184C97.4774 21.5654 97.1361 20.8187 96.7308 19.944C96.3468 19.048 95.9308 18.1094 95.4828 17.128C95.0561 16.1254 94.6401 15.1547 94.2348 14.216C93.8508 13.2774 93.4988 12.4454 93.1788 11.72C92.8801 10.9947 92.6561 10.4613 92.5068 10.12C92.2081 9.39468 91.9094 8.88268 91.6107 8.58402C91.2907 8.26402 91.0454 8.10402 90.8747 8.10402H97.4348C97.3281 8.10402 97.2534 8.25335 97.2108 8.55202C97.1681 8.85068 97.2428 9.37335 97.4348 10.12C97.5414 10.5253 97.7121 11.1014 97.9468 11.848C98.1814 12.5734 98.4481 13.3734 98.7468 14.248C99.0668 15.1227 99.3868 16.008 99.7068 16.904C100.048 17.8 100.357 18.6214 100.635 19.368H100.667C100.965 18.5787 101.275 17.7254 101.595 16.808C101.936 15.8694 102.267 14.952 102.587 14.056C102.928 13.16 103.216 12.36 103.451 11.656C103.707 10.952 103.899 10.4187 104.027 10.056C104.261 9.33068 104.357 8.82935 104.315 8.55202C104.272 8.25335 104.176 8.10402 104.027 8.10402H110.395C110.224 8.10402 109.989 8.25335 109.691 8.55202C109.413 8.82935 109.147 9.32002 108.891 10.024C108.741 10.408 108.496 11.0374 108.155 11.912C107.813 12.7867 107.408 13.7893 106.939 14.92C106.469 16.0507 105.979 17.2134 105.467 18.408C104.955 19.6027 104.453 20.7334 103.963 21.8C103.493 22.8454 103.077 23.7094 102.715 24.392C101.989 25.8 101.232 26.984 100.443 27.944C99.6534 28.904 98.7468 29.6294 97.7228 30.12C96.6988 30.632 95.4614 30.888 94.0108 30.888ZM111.471 30.184C111.62 30.184 111.759 30.0347 111.887 29.736C112.036 29.4374 112.111 28.9467 112.111 28.264V10.024C112.111 9.34135 112.036 8.86135 111.887 8.58402C111.759 8.28535 111.62 8.12535 111.471 8.10402H116.655V8.36002L116.591 8.96802L116.655 9.00002C116.868 8.80802 117.177 8.62668 117.583 8.45602C118.009 8.26402 118.489 8.10402 119.023 7.97602C119.577 7.84802 120.132 7.78402 120.687 7.78402C122.671 7.78402 124.207 8.13602 125.295 8.84002C126.404 9.52268 127.183 10.4507 127.631 11.624C128.079 12.7974 128.303 14.1307 128.303 15.624C128.303 17.096 128.079 18.4187 127.631 19.592C127.204 20.7654 126.436 21.6934 125.327 22.376C124.239 23.0587 122.692 23.4 120.687 23.4C119.855 23.4 119.076 23.2934 118.351 23.08C117.647 22.888 117.081 22.6 116.655 22.216L116.591 22.248L116.655 22.888V28.264C116.655 28.9467 116.719 29.4374 116.847 29.736C116.996 30.0347 117.145 30.184 117.295 30.184H111.471ZM120.047 20.168C120.943 20.168 121.657 20.04 122.191 19.784C122.745 19.5067 123.14 19.0374 123.375 18.376C123.631 17.7147 123.759 16.7974 123.759 15.624C123.759 14.4507 123.631 13.5333 123.375 12.872C123.14 12.1894 122.745 11.7093 122.191 11.432C121.657 11.1333 120.943 10.984 120.047 10.984C119.343 10.984 118.735 11.1547 118.223 11.496C117.711 11.816 117.316 12.3174 117.039 13C116.783 13.6827 116.655 14.568 116.655 15.656C116.655 16.7654 116.793 17.6507 117.071 18.312C117.348 18.9734 117.732 19.4534 118.223 19.752C118.735 20.0294 119.343 20.168 120.047 20.168ZM138.914 23.4C137.229 23.4 135.821 23.2294 134.69 22.888C133.581 22.5254 132.695 22.0134 132.034 21.352C131.373 20.6694 130.903 19.848 130.626 18.888C130.349 17.928 130.21 16.84 130.21 15.624C130.21 13.2133 130.882 11.304 132.226 9.89602C133.57 8.48802 135.629 7.78402 138.402 7.78402C140.023 7.78402 141.335 8.00802 142.338 8.45602C143.362 8.90402 144.141 9.50135 144.674 10.248C145.207 10.9947 145.57 11.8267 145.762 12.744C145.975 13.64 146.082 14.5467 146.082 15.464V16.968C146.082 16.904 145.783 16.84 145.186 16.776C144.61 16.6907 143.629 16.648 142.242 16.648H134.818C134.818 17.8214 135.17 18.7067 135.874 19.304C136.599 19.88 137.773 20.168 139.394 20.168C140.759 20.168 141.975 20.008 143.042 19.688C144.13 19.3467 144.919 19.0267 145.41 18.728V19.688L145.73 22.12C145.325 22.3974 144.546 22.6854 143.394 22.984C142.242 23.2614 140.749 23.4 138.914 23.4ZM136.002 13.896H141.538C141.538 13.4267 141.431 12.968 141.218 12.52C141.026 12.072 140.706 11.7093 140.258 11.432C139.81 11.1333 139.191 10.984 138.402 10.984C137.613 10.984 136.973 11.1013 136.482 11.336C136.013 11.5707 135.661 11.8587 135.426 12.2C135.213 12.5414 135.106 12.8934 135.106 13.256C135.106 13.4693 135.17 13.6293 135.298 13.736C135.426 13.8427 135.661 13.896 136.002 13.896ZM148.783 23.08C148.932 23.08 149.071 22.9307 149.199 22.632C149.348 22.3334 149.423 21.8427 149.423 21.16V10.344C149.423 9.66135 149.348 9.18135 149.199 8.90402C149.071 8.60535 148.932 8.44535 148.783 8.42402C149.722 8.42402 150.682 8.36002 151.663 8.23202C152.644 8.08268 153.412 7.93335 153.967 7.78402V9.06402L153.903 9.60802L153.967 9.67202C154.116 9.43735 154.351 9.18135 154.671 8.90402C155.012 8.60535 155.439 8.34935 155.951 8.13602C156.484 7.90135 157.103 7.78402 157.807 7.78402C158.852 7.78402 159.78 7.93335 160.591 8.23202C161.402 8.50935 161.978 8.79735 162.319 9.09602L161.359 13.384V14.344C161.039 13.896 160.602 13.4374 160.047 12.968C159.514 12.4987 158.916 12.104 158.255 11.784C157.615 11.464 156.954 11.304 156.271 11.304C155.503 11.304 154.927 11.5813 154.543 12.136C154.159 12.6907 153.967 13.5653 153.967 14.76V21.16C153.967 21.8427 154.031 22.3334 154.159 22.632C154.308 22.9307 154.458 23.08 154.607 23.08H148.783ZM172.409 23.4C170.51 23.4 168.91 23.2934 167.609 23.08C166.307 22.8667 165.411 22.6534 164.921 22.44V21.48L164.249 18.344C164.803 18.7494 165.838 19.1547 167.353 19.56C168.867 19.9654 170.723 20.168 172.921 20.168C173.582 20.168 174.105 20.1254 174.489 20.04C174.894 19.9547 175.182 19.816 175.353 19.624C175.523 19.432 175.609 19.1867 175.609 18.888C175.609 18.5254 175.47 18.248 175.193 18.056C174.937 17.864 174.467 17.7147 173.785 17.608C173.102 17.48 172.11 17.3307 170.809 17.16C169.166 16.9467 167.865 16.648 166.905 16.264C165.945 15.8587 165.262 15.3467 164.857 14.728C164.473 14.088 164.281 13.3094 164.281 12.392C164.281 11.5387 164.483 10.7707 164.889 10.088C165.315 9.38402 166.041 8.82935 167.065 8.42402C168.11 7.99735 169.561 7.78402 171.417 7.78402C173.166 7.78402 174.702 7.89068 176.025 8.10402C177.347 8.31735 178.297 8.53068 178.873 8.74402V9.70402L179.513 12.52C179.022 12.2 178.062 11.8693 176.633 11.528C175.203 11.1867 173.39 11.016 171.193 11.016C170.339 11.016 169.731 11.1014 169.369 11.272C169.006 11.4427 168.825 11.7413 168.825 12.168C168.825 12.3813 168.878 12.5627 168.985 12.712C169.113 12.8614 169.347 13 169.689 13.128C170.03 13.256 170.521 13.384 171.161 13.512C171.801 13.6187 172.643 13.736 173.689 13.864C175.502 14.0987 176.867 14.4294 177.785 14.856C178.702 15.2614 179.321 15.7734 179.641 16.392C179.961 16.9894 180.121 17.7147 180.121 18.568C180.121 19.656 179.843 20.5627 179.289 21.288C178.755 21.992 177.913 22.5254 176.761 22.888C175.63 23.2294 174.179 23.4 172.409 23.4ZM190.663 23.4C188.445 23.4 186.695 23.0587 185.415 22.376C184.157 21.6934 183.271 20.7654 182.759 19.592C182.247 18.4187 181.991 17.096 181.991 15.624C181.991 13.0213 182.695 11.0693 184.103 9.76802C185.533 8.46668 187.613 7.81602 190.343 7.81602C191.773 7.81602 193.074 7.92268 194.247 8.13602C195.442 8.34935 196.317 8.55202 196.871 8.74402V9.70402L197.511 13.128C197.042 12.68 196.189 12.2214 194.951 11.752C193.735 11.2614 192.274 11.016 190.567 11.016C189.65 11.016 188.882 11.1867 188.263 11.528C187.666 11.848 187.218 12.3493 186.919 13.032C186.642 13.7147 186.503 14.5894 186.503 15.656C186.503 16.7014 186.663 17.5547 186.983 18.216C187.303 18.8774 187.826 19.3574 188.551 19.656C189.277 19.9547 190.237 20.104 191.431 20.104C192.946 20.104 194.194 19.912 195.175 19.528C196.178 19.1227 196.85 18.728 197.191 18.344V19.304L197.511 21.864C197.106 22.2054 196.306 22.5467 195.111 22.888C193.938 23.2294 192.455 23.4 190.663 23.4ZM206.365 23.4C204.445 23.4 202.909 23.0267 201.757 22.28C200.627 21.512 200.061 20.2854 200.061 18.6C200.061 17.4267 200.36 16.4774 200.957 15.752C201.555 15.0267 202.365 14.4934 203.389 14.152C204.435 13.7894 205.619 13.608 206.941 13.608C207.923 13.608 208.755 13.6934 209.437 13.864C210.141 14.0347 210.707 14.216 211.133 14.408C211.56 14.6 211.837 14.7387 211.965 14.824C211.965 13.928 211.869 13.2027 211.677 12.648C211.485 12.072 211.133 11.656 210.621 11.4C210.131 11.1227 209.437 10.984 208.541 10.984C207.24 10.984 206.088 11.112 205.085 11.368C204.083 11.624 203.261 11.9227 202.621 12.264C202.003 12.6053 201.576 12.8933 201.341 13.128V12.168L201.021 9.03202C201.171 8.94668 201.565 8.80802 202.205 8.61602C202.845 8.42402 203.72 8.24268 204.829 8.07202C205.939 7.88002 207.261 7.78402 208.797 7.78402C210.909 7.78402 212.52 8.09335 213.629 8.71202C214.739 9.30935 215.496 10.1733 215.901 11.304C216.328 12.4347 216.541 13.8 216.541 15.4V21.16C216.541 21.7574 216.605 22.1947 216.733 22.472C216.883 22.728 217.032 22.9307 217.181 23.08H211.997V22.408L212.061 21.8L211.997 21.736C211.827 21.928 211.581 22.12 211.261 22.312C210.941 22.504 210.547 22.6854 210.077 22.856C209.608 23.0054 209.064 23.1334 208.445 23.24C207.827 23.3467 207.133 23.4 206.365 23.4ZM207.869 20.168C208.765 20.168 209.512 20.104 210.109 19.976C210.728 19.8267 211.197 19.6347 211.517 19.4C211.837 19.144 211.997 18.8454 211.997 18.504C211.997 18.0134 211.624 17.608 210.877 17.288C210.152 16.968 209.16 16.808 207.901 16.808C206.685 16.808 205.821 16.9787 205.309 17.32C204.819 17.6614 204.573 18.088 204.573 18.6C204.573 19.24 204.861 19.6667 205.437 19.88C206.013 20.072 206.824 20.168 207.869 20.168ZM220.006 23.08C220.156 23.08 220.305 22.9307 220.454 22.632C220.604 22.3334 220.678 21.8427 220.678 21.16V2.92002C220.678 2.23735 220.604 1.74668 220.454 1.44802C220.326 1.14935 220.188 1.00002 220.038 1.00002C221.446 1.00002 222.588 0.936015 223.462 0.808016C224.358 0.658683 224.945 0.50935 225.222 0.360016V21.16C225.222 21.8427 225.286 22.3334 225.414 22.632C225.564 22.9307 225.713 23.08 225.862 23.08H220.006ZM237.133 23.4C235.447 23.4 234.039 23.2294 232.909 22.888C231.799 22.5254 230.914 22.0134 230.253 21.352C229.591 20.6694 229.122 19.848 228.845 18.888C228.567 17.928 228.429 16.84 228.429 15.624C228.429 13.2133 229.101 11.304 230.445 9.89602C231.789 8.48802 233.847 7.78402 236.621 7.78402C238.242 7.78402 239.554 8.00802 240.557 8.45602C241.581 8.90402 242.359 9.50135 242.893 10.248C243.426 10.9947 243.789 11.8267 243.981 12.744C244.194 13.64 244.301 14.5467 244.301 15.464V16.968C244.301 16.904 244.002 16.84 243.405 16.776C242.829 16.6907 241.847 16.648 240.461 16.648H233.037C233.037 17.8214 233.389 18.7067 234.093 19.304C234.818 19.88 235.991 20.168 237.613 20.168C238.978 20.168 240.194 20.008 241.261 19.688C242.349 19.3467 243.138 19.0267 243.629 18.728V19.688L243.949 22.12C243.543 22.3974 242.765 22.6854 241.613 22.984C240.461 23.2614 238.967 23.4 237.133 23.4ZM234.221 13.896H239.757C239.757 13.4267 239.65 12.968 239.437 12.52C239.245 12.072 238.925 11.7093 238.477 11.432C238.029 11.1333 237.41 10.984 236.621 10.984C235.831 10.984 235.191 11.1013 234.701 11.336C234.231 11.5707 233.879 11.8587 233.645 12.2C233.431 12.5414 233.325 12.8934 233.325 13.256C233.325 13.4693 233.389 13.6293 233.517 13.736C233.645 13.8427 233.879 13.896 234.221 13.896ZM50.0529 71.4C46.3835 71.4 43.6315 70.6107 41.7969 69.032C39.9835 67.432 39.0769 64.9147 39.0769 61.48C39.0769 59.496 39.4502 57.768 40.1969 56.296C40.9435 54.8027 42.1275 53.64 43.7489 52.808C45.3702 51.976 47.4715 51.56 50.0529 51.56C52.0795 51.56 53.7649 51.6667 55.1089 51.88C56.4529 52.0933 57.3595 52.3067 57.8289 52.52V53.48L58.4689 57C58.0635 56.7227 57.4555 56.4347 56.6449 56.136C55.8555 55.8373 54.9062 55.592 53.7969 55.4C52.6875 55.1867 51.4609 55.08 50.1169 55.08C48.6449 55.08 47.4502 55.3147 46.5329 55.784C45.6369 56.2533 44.9755 56.968 44.5489 57.928C44.1435 58.8667 43.9409 60.0507 43.9409 61.48C43.9409 62.9094 44.1435 64.0934 44.5489 65.032C44.9755 65.9707 45.7009 66.6747 46.7249 67.144C47.7702 67.6134 49.2102 67.848 51.0449 67.848C52.8795 67.848 54.4049 67.592 55.6209 67.08C56.8582 66.568 57.7009 66.0774 58.1489 65.608V66.568L58.4689 69.8C58.1062 70.1414 57.2209 70.4934 55.8129 70.856C54.4262 71.2187 52.5062 71.4 50.0529 71.4ZM68.9504 71.4C66.817 71.4 65.1424 71.0587 63.9264 70.376C62.7317 69.6934 61.889 68.7654 61.3984 67.592C60.929 66.4187 60.6944 65.096 60.6944 63.624C60.6944 62.1307 60.9397 60.7974 61.4304 59.624C61.9424 58.4507 62.7957 57.5227 63.9904 56.84C65.185 56.136 66.8384 55.784 68.9504 55.784C71.0624 55.784 72.7157 56.136 73.9104 56.84C75.105 57.5227 75.9477 58.4507 76.4384 59.624C76.9504 60.7974 77.2064 62.1307 77.2064 63.624C77.2064 65.096 76.961 66.4187 76.4704 67.592C76.001 68.7654 75.169 69.6934 73.9744 70.376C72.7797 71.0587 71.105 71.4 68.9504 71.4ZM68.9504 68.168C69.8464 68.168 70.561 68.04 71.0944 67.784C71.649 67.5067 72.0437 67.0374 72.2784 66.376C72.5344 65.7147 72.6624 64.7974 72.6624 63.624C72.6624 62.4507 72.5344 61.5333 72.2784 60.872C72.0437 60.1894 71.649 59.7093 71.0944 59.432C70.561 59.1333 69.8464 58.984 68.9504 58.984C68.0544 58.984 67.329 59.1333 66.7744 59.432C66.241 59.7307 65.8464 60.2213 65.5904 60.904C65.3557 61.5867 65.2384 62.504 65.2384 63.656C65.2384 64.7867 65.3557 65.6827 65.5904 66.344C65.8464 67.0054 66.241 67.4747 66.7744 67.752C67.329 68.0294 68.0544 68.168 68.9504 68.168ZM79.5799 71.08C79.7292 71.08 79.8679 70.9307 79.9959 70.632C80.1452 70.3334 80.2199 69.8427 80.2199 69.16V58.344C80.2199 57.6613 80.1452 57.1814 79.9959 56.904C79.8679 56.6053 79.7292 56.4453 79.5799 56.424C80.5185 56.424 81.4785 56.36 82.4599 56.232C83.4412 56.0827 84.2092 55.9333 84.7639 55.784V57.736L84.6999 58.152L84.7639 58.216C84.8279 58.0667 85.0305 57.8 85.3719 57.416C85.7132 57.032 86.2039 56.6693 86.8439 56.328C87.4839 55.9653 88.2732 55.784 89.2119 55.784C91.1959 55.784 92.7105 56.3493 93.7559 57.48C94.8225 58.6107 95.3559 60.3814 95.3559 62.792V69.16C95.3559 69.8427 95.4199 70.3334 95.5479 70.632C95.6972 70.9307 95.8465 71.08 95.9959 71.08H90.1719C90.3212 71.08 90.4599 70.9307 90.5879 70.632C90.7372 70.3334 90.8119 69.8427 90.8119 69.16V62.888C90.8119 61.8854 90.7052 61.1067 90.4919 60.552C90.2785 59.976 89.9799 59.5707 89.5959 59.336C89.2332 59.1013 88.8065 58.984 88.3159 58.984C87.7185 58.984 87.1425 59.1333 86.5879 59.432C86.0545 59.7093 85.6172 60.1573 85.2759 60.776C84.9345 61.3734 84.7639 62.1734 84.7639 63.176V69.16C84.7639 69.8427 84.8279 70.3334 84.9559 70.632C85.1052 70.9307 85.2545 71.08 85.4039 71.08H79.5799ZM100.732 71.08C100.881 71.0587 101.02 70.8987 101.148 70.6C101.297 70.3014 101.372 69.8214 101.372 69.16V63.176C101.372 62.3227 101.287 61.5867 101.116 60.968C100.967 60.328 100.711 59.8373 100.348 59.496C99.9852 59.1547 99.4945 58.984 98.8759 58.984C97.8305 58.984 96.9772 59.3573 96.3159 60.104C95.6759 60.8507 95.3559 61.9813 95.3559 63.496H93.0199C93.0199 62.472 93.1799 61.5013 93.4999 60.584C93.8199 59.6454 94.2785 58.824 94.8759 58.12C95.4732 57.3947 96.1879 56.8293 97.0199 56.424C97.8519 55.9973 98.7692 55.784 99.7719 55.784C101.052 55.784 102.151 56.0187 103.068 56.488C103.985 56.936 104.689 57.6933 105.18 58.76C105.671 59.8267 105.916 61.2774 105.916 63.112V69.16C105.916 69.8214 105.98 70.3014 106.108 70.6C106.257 70.8987 106.407 71.0587 106.556 71.08H100.732ZM109.174 71.08C109.323 71.08 109.462 70.9307 109.59 70.632C109.739 70.3334 109.814 69.8427 109.814 69.16V58.344C109.814 57.6613 109.739 57.1814 109.59 56.904C109.462 56.6053 109.323 56.4453 109.174 56.424C110.112 56.424 111.072 56.36 112.054 56.232C113.035 56.0827 113.803 55.9333 114.358 55.784V57.736L114.294 58.152L114.358 58.216C114.422 58.0667 114.624 57.8 114.966 57.416C115.307 57.032 115.798 56.6693 116.438 56.328C117.078 55.9653 117.867 55.784 118.806 55.784C120.79 55.784 122.304 56.3493 123.35 57.48C124.416 58.6107 124.95 60.3814 124.95 62.792V69.16C124.95 69.8427 125.014 70.3334 125.142 70.632C125.291 70.9307 125.44 71.08 125.59 71.08H119.766C119.915 71.08 120.054 70.9307 120.182 70.632C120.331 70.3334 120.406 69.8427 120.406 69.16V62.888C120.406 61.8854 120.299 61.1067 120.086 60.552C119.872 59.976 119.574 59.5707 119.19 59.336C118.827 59.1013 118.4 58.984 117.91 58.984C117.312 58.984 116.736 59.1333 116.182 59.432C115.648 59.7093 115.211 60.1573 114.87 60.776C114.528 61.3734 114.358 62.1734 114.358 63.176V69.16C114.358 69.8427 114.422 70.3334 114.55 70.632C114.699 70.9307 114.848 71.08 114.998 71.08H109.174ZM130.326 71.08C130.475 71.0587 130.614 70.8987 130.742 70.6C130.891 70.3014 130.966 69.8214 130.966 69.16V63.176C130.966 62.3227 130.88 61.5867 130.71 60.968C130.56 60.328 130.304 59.8373 129.942 59.496C129.579 59.1547 129.088 58.984 128.47 58.984C127.424 58.984 126.571 59.3573 125.91 60.104C125.27 60.8507 124.95 61.9813 124.95 63.496H122.614C122.614 62.472 122.774 61.5013 123.094 60.584C123.414 59.6454 123.872 58.824 124.47 58.12C125.067 57.3947 125.782 56.8293 126.614 56.424C127.446 55.9973 128.363 55.784 129.366 55.784C130.646 55.784 131.744 56.0187 132.662 56.488C133.579 56.936 134.283 57.6933 134.774 58.76C135.264 59.8267 135.51 61.2774 135.51 63.112V69.16C135.51 69.8214 135.574 70.3014 135.702 70.6C135.851 70.8987 136 71.0587 136.15 71.08H130.326ZM145.231 71.4C143.994 71.4 142.938 71.1867 142.063 70.76C141.189 70.312 140.527 69.5547 140.079 68.488C139.631 67.4 139.407 65.896 139.407 63.976V58.024C139.407 57.3413 139.333 56.8507 139.183 56.552C139.055 56.2533 138.917 56.104 138.767 56.104H144.655C144.506 56.104 144.346 56.2533 144.175 56.552C144.026 56.8507 143.951 57.3413 143.951 58.024V64.424C143.951 65.768 144.197 66.728 144.687 67.304C145.199 67.88 145.786 68.168 146.447 68.168C147.386 68.168 148.111 67.9547 148.623 67.528C149.135 67.08 149.498 66.504 149.711 65.8C149.925 65.0747 150.031 64.3173 150.031 63.528V58.024C150.031 57.3413 149.957 56.8613 149.807 56.584C149.679 56.2854 149.541 56.1253 149.391 56.104H154.575V69.16C154.575 69.8427 154.639 70.3334 154.767 70.632C154.917 70.9307 155.066 71.08 155.215 71.08H150.031V69.832L150.095 69.192L150.031 69.128C149.818 69.448 149.551 69.7467 149.231 70.024C148.911 70.3014 148.549 70.5467 148.143 70.76C147.738 70.952 147.29 71.1014 146.799 71.208C146.309 71.336 145.786 71.4 145.231 71.4ZM157.83 71.08C157.979 71.08 158.118 70.9307 158.246 70.632C158.395 70.3334 158.47 69.8427 158.47 69.16V58.344C158.47 57.6613 158.395 57.1814 158.246 56.904C158.118 56.6053 157.979 56.4453 157.83 56.424C158.769 56.424 159.729 56.36 160.71 56.232C161.691 56.0827 162.459 55.9333 163.014 55.784V57.736L162.95 58.152L163.014 58.216C163.078 58.0667 163.281 57.8 163.622 57.416C163.963 57.032 164.454 56.6693 165.094 56.328C165.734 55.9653 166.523 55.784 167.462 55.784C169.446 55.784 170.961 56.3493 172.006 57.48C173.073 58.6107 173.606 60.3814 173.606 62.792V69.16C173.606 69.8427 173.67 70.3334 173.798 70.632C173.947 70.9307 174.097 71.08 174.246 71.08H168.422C168.571 71.08 168.71 70.9307 168.838 70.632C168.987 70.3334 169.062 69.8427 169.062 69.16V62.888C169.062 61.8854 168.955 61.1067 168.742 60.552C168.529 59.976 168.23 59.5707 167.846 59.336C167.483 59.1013 167.057 58.984 166.566 58.984C165.969 58.984 165.393 59.1333 164.838 59.432C164.305 59.7093 163.867 60.1573 163.526 60.776C163.185 61.3734 163.014 62.1734 163.014 63.176V69.16C163.014 69.8427 163.078 70.3334 163.206 70.632C163.355 70.9307 163.505 71.08 163.654 71.08H157.83ZM176.861 71.08C177.01 71.08 177.16 70.9307 177.309 70.632C177.458 70.3334 177.533 69.8427 177.533 69.16V58.024C177.533 57.3413 177.458 56.8507 177.309 56.552C177.181 56.2533 177.042 56.104 176.893 56.104H182.077V69.16C182.077 69.8427 182.141 70.3334 182.269 70.632C182.418 70.9307 182.568 71.08 182.717 71.08H176.861ZM179.453 53.672C178.664 53.672 178.034 53.4587 177.565 53.032C177.096 52.6053 176.861 52.0187 176.861 51.272C176.861 50.5253 177.085 49.9387 177.533 49.512C178.002 49.0854 178.642 48.872 179.453 48.872C180.264 48.872 180.893 49.0854 181.341 49.512C181.81 49.9387 182.045 50.5253 182.045 51.272C182.045 52.0187 181.81 52.6053 181.341 53.032C180.893 53.4587 180.264 53.672 179.453 53.672ZM191.915 71.4C190.443 71.4 189.376 71.0907 188.715 70.472C188.054 69.832 187.723 68.7974 187.723 67.368V59.304H184.843V56.104C185.824 56.104 186.592 55.9867 187.147 55.752C187.702 55.496 188.096 55.0587 188.331 54.44C188.566 53.8213 188.683 52.9573 188.683 51.848H192.267V56.104H197.739C197.59 56.5307 197.44 57.064 197.291 57.704C197.163 58.3227 197.099 58.856 197.099 59.304H192.267V65.608C192.267 66.5894 192.342 67.2614 192.491 67.624C192.64 67.9867 192.992 68.168 193.547 68.168C193.91 68.168 194.304 68.04 194.731 67.784C195.179 67.528 195.606 67.2187 196.011 66.856C196.438 66.472 196.79 66.1094 197.067 65.768V66.76L197.387 69.864C197.131 70.0774 196.747 70.312 196.235 70.568C195.723 70.8027 195.094 70.9947 194.347 71.144C193.622 71.3147 192.811 71.4 191.915 71.4ZM199.839 78.888C198.559 78.888 197.546 78.76 196.799 78.504C196.052 78.248 195.572 78.0027 195.359 77.768L195.999 72.808V71.848C196.255 72.4027 196.607 72.9787 197.055 73.576C197.482 74.1734 197.983 74.6747 198.559 75.08C199.135 75.4854 199.732 75.688 200.351 75.688C200.778 75.688 201.162 75.592 201.503 75.4C201.866 75.2294 202.196 74.952 202.495 74.568C202.815 74.184 203.124 73.704 203.423 73.128C203.85 72.2747 204.116 71.688 204.223 71.368C204.095 71.1974 203.882 70.8027 203.583 70.184C203.306 69.5654 202.964 68.8187 202.559 67.944C202.175 67.048 201.759 66.1094 201.311 65.128C200.884 64.1254 200.468 63.1547 200.063 62.216C199.679 61.2774 199.327 60.4454 199.007 59.72C198.708 58.9947 198.484 58.4613 198.335 58.12C198.036 57.3947 197.738 56.8827 197.439 56.584C197.119 56.264 196.874 56.104 196.703 56.104H203.263C203.156 56.104 203.082 56.2533 203.039 56.552C202.996 56.8507 203.071 57.3733 203.263 58.12C203.37 58.5253 203.54 59.1014 203.775 59.848C204.01 60.5734 204.276 61.3734 204.575 62.248C204.895 63.1227 205.215 64.008 205.535 64.904C205.876 65.8 206.186 66.6214 206.463 67.368H206.495C206.794 66.5787 207.103 65.7254 207.423 64.808C207.764 63.8694 208.095 62.952 208.415 62.056C208.756 61.16 209.044 60.36 209.279 59.656C209.535 58.952 209.727 58.4187 209.855 58.056C210.09 57.3307 210.186 56.8293 210.143 56.552C210.1 56.2533 210.004 56.104 209.855 56.104H216.223C216.052 56.104 215.818 56.2533 215.519 56.552C215.242 56.8293 214.975 57.32 214.719 58.024C214.57 58.408 214.324 59.0374 213.983 59.912C213.642 60.7867 213.236 61.7893 212.767 62.92C212.298 64.0507 211.807 65.2134 211.295 66.408C210.783 67.6027 210.282 68.7334 209.791 69.8C209.322 70.8454 208.906 71.7094 208.543 72.392C207.818 73.8 207.06 74.984 206.271 75.944C205.482 76.904 204.575 77.6294 203.551 78.12C202.527 78.632 201.29 78.888 199.839 78.888Z" fill="#1A1A1A"/>
</svg>
