<svg width="166" height="72" viewBox="0 0 166 72" fill="none" xmlns="http://www.w3.org/2000/svg">
<path d="M8.00963 23.08C8.15896 23.08 8.30829 22.9307 8.45763 22.632C8.60696 22.3334 8.68163 21.8427 8.68163 21.16V8.36002C8.68163 7.89068 8.62829 7.61335 8.52163 7.52802C8.41496 7.44268 8.04163 7.40002 7.40163 7.40002H5.06563C3.82829 7.40002 2.82563 7.53868 2.05763 7.81602C1.31096 8.07202 0.820292 8.31735 0.585625 8.55202L1.22563 4.84002V3.88002H21.0656V4.84002L21.7056 8.55202C21.471 8.31735 20.9696 8.07202 20.2016 7.81602C19.455 7.53868 18.463 7.40002 17.2256 7.40002H14.9216C14.2603 7.40002 13.8763 7.44268 13.7696 7.52802C13.663 7.61335 13.6096 7.89068 13.6096 8.36002V21.16C13.6096 21.8427 13.6843 22.3334 13.8336 22.632C13.983 22.9307 14.1323 23.08 14.2816 23.08H8.00963ZM23.4236 23.08C23.573 23.08 23.7116 22.9307 23.8396 22.632C23.989 22.3334 24.0636 21.8427 24.0636 21.16V2.92002C24.0636 2.23735 23.989 1.75735 23.8396 1.48002C23.7116 1.18135 23.573 1.02135 23.4236 1.00002H28.6076V9.73602L28.5436 10.152L28.6076 10.216C28.6716 10.0667 28.8743 9.80002 29.2156 9.41602C29.557 9.03202 30.0476 8.66935 30.6876 8.32802C31.3276 7.96535 32.117 7.78402 33.0556 7.78402C35.0396 7.78402 36.5543 8.34935 37.5996 9.48002C38.6663 10.6107 39.1996 12.3814 39.1996 14.792V21.16C39.1996 21.8427 39.2636 22.3334 39.3916 22.632C39.541 22.9307 39.6903 23.08 39.8396 23.08H34.0156C34.165 23.08 34.3036 22.9307 34.4316 22.632C34.581 22.3334 34.6556 21.8427 34.6556 21.16V14.888C34.6556 13.8854 34.549 13.1067 34.3356 12.552C34.1223 11.976 33.8236 11.5707 33.4396 11.336C33.077 11.1013 32.6503 10.984 32.1596 10.984C31.5623 10.984 30.9863 11.1333 30.4316 11.432C29.8983 11.7093 29.461 12.1573 29.1196 12.776C28.7783 13.3734 28.6076 14.1734 28.6076 15.176V21.16C28.6076 21.8427 28.6716 22.3334 28.7996 22.632C28.949 22.9307 29.0983 23.08 29.2476 23.08H23.4236ZM50.7109 23.4C49.0255 23.4 47.6175 23.2294 46.4869 22.888C45.3775 22.5254 44.4922 22.0134 43.8309 21.352C43.1695 20.6694 42.7002 19.848 42.4229 18.888C42.1455 17.928 42.0069 16.84 42.0069 15.624C42.0069 13.2133 42.6789 11.304 44.0229 9.89602C45.3669 8.48802 47.4255 7.78402 50.1989 7.78402C51.8202 7.78402 53.1322 8.00802 54.1349 8.45602C55.1589 8.90402 55.9375 9.50135 56.4709 10.248C57.0042 10.9947 57.3669 11.8267 57.5589 12.744C57.7722 13.64 57.8789 14.5467 57.8789 15.464V16.968C57.8789 16.904 57.5802 16.84 56.9829 16.776C56.4069 16.6907 55.4255 16.648 54.0389 16.648H46.6149C46.6149 17.8214 46.9669 18.7067 47.6709 19.304C48.3962 19.88 49.5695 20.168 51.1909 20.168C52.5562 20.168 53.7722 20.008 54.8389 19.688C55.9269 19.3467 56.7162 19.0267 57.2069 18.728V19.688L57.5269 22.12C57.1215 22.3974 56.3429 22.6854 55.1909 22.984C54.0389 23.2614 52.5455 23.4 50.7109 23.4ZM47.7989 13.896H53.3349C53.3349 13.4267 53.2282 12.968 53.0149 12.52C52.8229 12.072 52.5029 11.7093 52.0549 11.432C51.6069 11.1333 50.9882 10.984 50.1989 10.984C49.4095 10.984 48.7695 11.1013 48.2789 11.336C47.8095 11.5707 47.4575 11.8587 47.2229 12.2C47.0095 12.5414 46.9029 12.8934 46.9029 13.256C46.9029 13.4693 46.9669 13.6293 47.0949 13.736C47.2229 13.8427 47.4575 13.896 47.7989 13.896ZM74.6034 23.08C74.7527 23.08 74.902 22.9307 75.0514 22.632C75.2007 22.3334 75.2754 21.8427 75.2754 21.16V8.36002C75.2754 7.89068 75.222 7.61335 75.1154 7.52802C75.0087 7.44268 74.6354 7.40002 73.9954 7.40002H71.6594C70.422 7.40002 69.4194 7.53868 68.6514 7.81602C67.9047 8.07202 67.414 8.31735 67.1794 8.55202L67.8194 4.84002V3.88002H87.6594V4.84002L88.2994 8.55202C88.0647 8.31735 87.5634 8.07202 86.7954 7.81602C86.0487 7.53868 85.0567 7.40002 83.8194 7.40002H81.5154C80.854 7.40002 80.47 7.44268 80.3634 7.52802C80.2567 7.61335 80.2034 7.89068 80.2034 8.36002V21.16C80.2034 21.8427 80.278 22.3334 80.4274 22.632C80.5767 22.9307 80.726 23.08 80.8754 23.08H74.6034ZM93.6309 23.4C91.7109 23.4 90.1749 23.0267 89.0229 22.28C87.8922 21.512 87.3269 20.2854 87.3269 18.6C87.3269 17.4267 87.6255 16.4774 88.2229 15.752C88.8202 15.0267 89.6309 14.4934 90.6549 14.152C91.7002 13.7894 92.8842 13.608 94.2069 13.608C95.1882 13.608 96.0202 13.6934 96.7029 13.864C97.4069 14.0347 97.9722 14.216 98.3989 14.408C98.8255 14.6 99.1029 14.7387 99.2309 14.824C99.2309 13.928 99.1349 13.2027 98.9429 12.648C98.7509 12.072 98.3989 11.656 97.8869 11.4C97.3962 11.1227 96.7029 10.984 95.8069 10.984C94.5055 10.984 93.3535 11.112 92.3509 11.368C91.3482 11.624 90.5269 11.9227 89.8869 12.264C89.2682 12.6053 88.8415 12.8933 88.6069 13.128V12.168L88.2869 9.03202C88.4362 8.94668 88.8309 8.80802 89.4709 8.61602C90.1109 8.42402 90.9855 8.24268 92.0949 8.07202C93.2042 7.88002 94.5269 7.78402 96.0629 7.78402C98.1749 7.78402 99.7855 8.09335 100.895 8.71202C102.004 9.30935 102.762 10.1733 103.167 11.304C103.594 12.4347 103.807 13.8 103.807 15.4V21.16C103.807 21.7574 103.871 22.1947 103.999 22.472C104.148 22.728 104.298 22.9307 104.447 23.08H99.2629V22.408L99.3269 21.8L99.2629 21.736C99.0922 21.928 98.8469 22.12 98.5269 22.312C98.2069 22.504 97.8122 22.6854 97.3429 22.856C96.8735 23.0054 96.3295 23.1334 95.7109 23.24C95.0922 23.3467 94.3989 23.4 93.6309 23.4ZM95.1349 20.168C96.0309 20.168 96.7775 20.104 97.3749 19.976C97.9935 19.8267 98.4629 19.6347 98.7829 19.4C99.1029 19.144 99.2629 18.8454 99.2629 18.504C99.2629 18.0134 98.8895 17.608 98.1429 17.288C97.4175 16.968 96.4255 16.808 95.1669 16.808C93.9509 16.808 93.0869 16.9787 92.5749 17.32C92.0842 17.6614 91.8389 18.088 91.8389 18.6C91.8389 19.24 92.1269 19.6667 92.7029 19.88C93.2789 20.072 94.0895 20.168 95.1349 20.168ZM107.272 23.08C107.421 23.08 107.571 22.9307 107.72 22.632C107.869 22.3334 107.944 21.8427 107.944 21.16V2.92002C107.944 2.23735 107.869 1.74668 107.72 1.44802C107.592 1.14935 107.453 1.00002 107.304 1.00002C108.712 1.00002 109.853 0.936015 110.728 0.808016C111.624 0.658683 112.211 0.50935 112.488 0.360016V21.16C112.488 21.8427 112.552 22.3334 112.68 22.632C112.829 22.9307 112.979 23.08 113.128 23.08H107.272ZM124.398 23.4C122.713 23.4 121.305 23.2294 120.174 22.888C119.065 22.5254 118.18 22.0134 117.518 21.352C116.857 20.6694 116.388 19.848 116.11 18.888C115.833 17.928 115.694 16.84 115.694 15.624C115.694 13.2133 116.366 11.304 117.71 9.89602C119.054 8.48802 121.113 7.78402 123.886 7.78402C125.508 7.78402 126.82 8.00802 127.822 8.45602C128.846 8.90402 129.625 9.50135 130.158 10.248C130.692 10.9947 131.054 11.8267 131.246 12.744C131.46 13.64 131.566 14.5467 131.566 15.464V16.968C131.566 16.904 131.268 16.84 130.67 16.776C130.094 16.6907 129.113 16.648 127.726 16.648H120.302C120.302 17.8214 120.654 18.7067 121.358 19.304C122.084 19.88 123.257 20.168 124.878 20.168C126.244 20.168 127.46 20.008 128.526 19.688C129.614 19.3467 130.404 19.0267 130.894 18.728V19.688L131.214 22.12C130.809 22.3974 130.03 22.6854 128.878 22.984C127.726 23.2614 126.233 23.4 124.398 23.4ZM121.486 13.896H127.022C127.022 13.4267 126.916 12.968 126.702 12.52C126.51 12.072 126.19 11.7093 125.742 11.432C125.294 11.1333 124.676 10.984 123.886 10.984C123.097 10.984 122.457 11.1013 121.966 11.336C121.497 11.5707 121.145 11.8587 120.91 12.2C120.697 12.5414 120.59 12.8934 120.59 13.256C120.59 13.4693 120.654 13.6293 120.782 13.736C120.91 13.8427 121.145 13.896 121.486 13.896ZM134.267 23.08C134.417 23.08 134.555 22.9307 134.683 22.632C134.833 22.3334 134.907 21.8427 134.907 21.16V10.344C134.907 9.66135 134.833 9.18135 134.683 8.90402C134.555 8.60535 134.417 8.44535 134.267 8.42402C135.206 8.42402 136.166 8.36002 137.147 8.23202C138.129 8.08268 138.897 7.93335 139.451 7.78402V9.73602L139.387 10.152L139.451 10.216C139.515 10.0667 139.718 9.80002 140.059 9.41602C140.401 9.03202 140.891 8.66935 141.531 8.32802C142.171 7.96535 142.961 7.78402 143.899 7.78402C145.883 7.78402 147.398 8.34935 148.443 9.48002C149.51 10.6107 150.043 12.3814 150.043 14.792V21.16C150.043 21.8427 150.107 22.3334 150.235 22.632C150.385 22.9307 150.534 23.08 150.683 23.08H144.859C145.009 23.08 145.147 22.9307 145.275 22.632C145.425 22.3334 145.499 21.8427 145.499 21.16V14.888C145.499 13.8854 145.393 13.1067 145.179 12.552C144.966 11.976 144.667 11.5707 144.283 11.336C143.921 11.1013 143.494 10.984 143.003 10.984C142.406 10.984 141.83 11.1333 141.275 11.432C140.742 11.7093 140.305 12.1573 139.963 12.776C139.622 13.3734 139.451 14.1734 139.451 15.176V21.16C139.451 21.8427 139.515 22.3334 139.643 22.632C139.793 22.9307 139.942 23.08 140.091 23.08H134.267ZM159.603 23.4C158.131 23.4 157.064 23.0907 156.403 22.472C155.741 21.832 155.411 20.7974 155.411 19.368V11.304H152.531V8.10402C153.512 8.10402 154.28 7.98668 154.835 7.75202C155.389 7.49602 155.784 7.05868 156.019 6.44002C156.253 5.82135 156.371 4.95735 156.371 3.84802H159.955V8.10402H165.427C165.277 8.53068 165.128 9.06402 164.979 9.70402C164.851 10.3227 164.787 10.856 164.787 11.304H159.955V17.608C159.955 18.5894 160.029 19.2614 160.179 19.624C160.328 19.9867 160.68 20.168 161.235 20.168C161.597 20.168 161.992 20.04 162.419 19.784C162.867 19.528 163.293 19.2187 163.699 18.856C164.125 18.472 164.477 18.1094 164.755 17.768V18.76L165.075 21.864C164.819 22.0774 164.435 22.312 163.923 22.568C163.411 22.8027 162.781 22.9947 162.035 23.144C161.309 23.3147 160.499 23.4 159.603 23.4ZM14.9594 71.08C15.1087 71.08 15.258 70.9307 15.4074 70.632C15.5567 70.3334 15.6314 69.8427 15.6314 69.16V53.8C15.6314 53.1173 15.5567 52.6373 15.4074 52.36C15.258 52.0613 15.1087 51.9013 14.9594 51.88H21.2314C21.082 51.88 21.0394 52.0293 21.1034 52.328C21.1887 52.6267 21.5407 53.1387 22.1594 53.864C22.33 54.0347 22.6074 54.3547 22.9914 54.824C23.3967 55.272 23.8767 55.816 24.4314 56.456C24.986 57.096 25.5727 57.7893 26.1914 58.536C26.8314 59.2827 27.4714 60.0293 28.1114 60.776C28.7727 61.5227 29.402 62.2374 29.9994 62.92H30.0314V53.8C30.0314 53.1173 29.9567 52.6373 29.8074 52.36C29.658 52.0613 29.5087 51.9013 29.3594 51.88H35.6314C35.482 51.88 35.3327 52.0293 35.1834 52.328C35.034 52.6267 34.9594 53.128 34.9594 53.832V69.16C34.9594 69.8427 35.034 70.3334 35.1834 70.632C35.3327 70.9307 35.482 71.08 35.6314 71.08H30.1274C30.2554 71.08 30.266 70.9307 30.1594 70.632C30.074 70.3334 29.7434 69.8214 29.1674 69.096C28.8687 68.712 28.474 68.2214 27.9834 67.624C27.4927 67.0054 26.938 66.3227 26.3194 65.576C25.722 64.8293 25.0927 64.0507 24.4314 63.24C23.77 62.4293 23.1087 61.64 22.4474 60.872C21.8074 60.0827 21.21 59.3574 20.6554 58.696H20.5594V69.16C20.5594 69.8427 20.634 70.3334 20.7834 70.632C20.9327 70.9307 21.082 71.08 21.2314 71.08H14.9594ZM46.8984 71.4C45.213 71.4 43.805 71.2294 42.6744 70.888C41.565 70.5254 40.6797 70.0134 40.0184 69.352C39.357 68.6694 38.8877 67.848 38.6104 66.888C38.333 65.928 38.1944 64.84 38.1944 63.624C38.1944 61.2133 38.8664 59.304 40.2104 57.896C41.5544 56.488 43.613 55.784 46.3864 55.784C48.0077 55.784 49.3197 56.008 50.3224 56.456C51.3464 56.904 52.125 57.5013 52.6584 58.248C53.1917 58.9947 53.5544 59.8267 53.7464 60.744C53.9597 61.64 54.0664 62.5467 54.0664 63.464V64.968C54.0664 64.904 53.7677 64.84 53.1704 64.776C52.5944 64.6907 51.613 64.648 50.2264 64.648H42.8024C42.8024 65.8214 43.1544 66.7067 43.8584 67.304C44.5837 67.88 45.757 68.168 47.3784 68.168C48.7437 68.168 49.9597 68.008 51.0264 67.688C52.1144 67.3467 52.9037 67.0267 53.3944 66.728V67.688L53.7144 70.12C53.309 70.3974 52.5304 70.6854 51.3784 70.984C50.2264 71.2614 48.733 71.4 46.8984 71.4ZM43.9864 61.896H49.5224C49.5224 61.4267 49.4157 60.968 49.2024 60.52C49.0104 60.072 48.6904 59.7093 48.2424 59.432C47.7944 59.1333 47.1757 58.984 46.3864 58.984C45.597 58.984 44.957 59.1013 44.4664 59.336C43.997 59.5707 43.645 59.8587 43.4104 60.2C43.197 60.5414 43.0904 60.8934 43.0904 61.256C43.0904 61.4693 43.1544 61.6293 43.2824 61.736C43.4104 61.8427 43.645 61.896 43.9864 61.896ZM63.0714 71.4C61.5994 71.4 60.5327 71.0907 59.8714 70.472C59.21 69.832 58.8794 68.7974 58.8794 67.368V59.304H55.9994V56.104C56.9807 56.104 57.7487 55.9867 58.3034 55.752C58.858 55.496 59.2527 55.0587 59.4874 54.44C59.722 53.8213 59.8394 52.9573 59.8394 51.848H63.4234V56.104H68.8954C68.746 56.5307 68.5967 57.064 68.4474 57.704C68.3194 58.3227 68.2554 58.856 68.2554 59.304H63.4234V65.608C63.4234 66.5894 63.498 67.2614 63.6474 67.624C63.7967 67.9867 64.1487 68.168 64.7034 68.168C65.066 68.168 65.4607 68.04 65.8874 67.784C66.3354 67.528 66.762 67.2187 67.1674 66.856C67.594 66.472 67.946 66.1094 68.2234 65.768V66.76L68.5434 69.864C68.2874 70.0774 67.9034 70.312 67.3914 70.568C66.8794 70.8027 66.25 70.9947 65.5034 71.144C64.778 71.3147 63.9674 71.4 63.0714 71.4ZM75.0591 71.08C75.2085 71.08 75.3045 70.9414 75.3471 70.664C75.4111 70.3867 75.3151 69.8854 75.0591 69.16C74.9738 68.8827 74.7818 68.392 74.4831 67.688C74.2058 66.984 73.8751 66.1734 73.4911 65.256C73.1071 64.3387 72.7125 63.4107 72.3071 62.472C71.9231 61.5333 71.5711 60.6693 71.2511 59.88C70.9311 59.0907 70.6858 58.4933 70.5151 58.088C70.2378 57.3627 69.9391 56.8507 69.6191 56.552C69.3205 56.2533 69.0751 56.104 68.8831 56.104H75.4111C75.2831 56.104 75.1978 56.2533 75.1551 56.552C75.1125 56.8507 75.1978 57.3627 75.4111 58.088C75.5178 58.472 75.6885 59.0374 75.9231 59.784C76.1791 60.5307 76.4565 61.3733 76.7551 62.312C77.0751 63.2507 77.3951 64.2107 77.7151 65.192C78.0565 66.1734 78.3658 67.08 78.6431 67.912H78.6751C78.9098 67.0587 79.1658 66.1414 79.4431 65.16C79.7205 64.1574 79.9871 63.1867 80.2431 62.248C80.4991 61.288 80.7231 60.4347 80.9151 59.688C81.1285 58.9413 81.2778 58.3867 81.3631 58.024C81.5551 57.2987 81.6298 56.7973 81.5871 56.52C81.5445 56.2427 81.4698 56.104 81.3631 56.104H88.4671C88.3391 56.104 88.2538 56.2533 88.2111 56.552C88.1685 56.8507 88.2538 57.3627 88.4671 58.088C88.5738 58.472 88.7338 59.0374 88.9471 59.784C89.1605 60.5307 89.3951 61.3733 89.6511 62.312C89.9071 63.2507 90.1738 64.2107 90.4511 65.192C90.7285 66.1734 90.9738 67.08 91.1871 67.912H91.2191C91.5391 67.0587 91.8698 66.1414 92.2111 65.16C92.5738 64.1574 92.9258 63.1867 93.2671 62.248C93.6085 61.288 93.9071 60.4347 94.1631 59.688C94.4191 58.9413 94.5898 58.3867 94.6751 58.024C94.8671 57.3413 94.9418 56.8507 94.8991 56.552C94.8565 56.2533 94.7818 56.104 94.6751 56.104H101.043C100.894 56.104 100.68 56.2427 100.403 56.52C100.126 56.7973 99.8378 57.288 99.5391 57.992C99.3898 58.376 99.1445 58.9413 98.8031 59.688C98.4618 60.4347 98.0885 61.2667 97.6831 62.184C97.2778 63.1013 96.8725 64.0187 96.4671 64.936C96.0618 65.8534 95.6991 66.6854 95.3791 67.432C95.0805 68.1787 94.8671 68.7547 94.7391 69.16C94.5258 69.8427 94.4405 70.3334 94.4831 70.632C94.5258 70.9307 94.6111 71.08 94.7391 71.08H87.6031C87.7311 71.08 87.8165 70.9307 87.8591 70.632C87.9018 70.3334 87.8165 69.8427 87.6031 69.16C87.5391 68.968 87.4111 68.5307 87.2191 67.848C87.0485 67.1654 86.8351 66.344 86.5791 65.384C86.3231 64.4027 86.0565 63.3894 85.7791 62.344C85.5018 61.2987 85.2351 60.3067 84.9791 59.368H84.8831C84.6271 60.264 84.3605 61.224 84.0831 62.248C83.8058 63.2507 83.5391 64.232 83.2831 65.192C83.0271 66.1307 82.7925 66.9627 82.5791 67.688C82.3871 68.392 82.2591 68.8827 82.1951 69.16C82.0031 69.864 81.9285 70.3654 81.9711 70.664C82.0138 70.9414 82.0885 71.08 82.1951 71.08H75.0591ZM108.982 71.4C106.848 71.4 105.174 71.0587 103.958 70.376C102.763 69.6934 101.92 68.7654 101.43 67.592C100.96 66.4187 100.726 65.096 100.726 63.624C100.726 62.1307 100.971 60.7974 101.462 59.624C101.974 58.4507 102.827 57.5227 104.022 56.84C105.216 56.136 106.87 55.784 108.982 55.784C111.094 55.784 112.747 56.136 113.942 56.84C115.136 57.5227 115.979 58.4507 116.47 59.624C116.982 60.7974 117.238 62.1307 117.238 63.624C117.238 65.096 116.992 66.4187 116.502 67.592C116.032 68.7654 115.2 69.6934 114.006 70.376C112.811 71.0587 111.136 71.4 108.982 71.4ZM108.982 68.168C109.878 68.168 110.592 68.04 111.126 67.784C111.68 67.5067 112.075 67.0374 112.31 66.376C112.566 65.7147 112.694 64.7974 112.694 63.624C112.694 62.4507 112.566 61.5333 112.31 60.872C112.075 60.1894 111.68 59.7093 111.126 59.432C110.592 59.1333 109.878 58.984 108.982 58.984C108.086 58.984 107.36 59.1333 106.806 59.432C106.272 59.7307 105.878 60.2213 105.622 60.904C105.387 61.5867 105.27 62.504 105.27 63.656C105.27 64.7867 105.387 65.6827 105.622 66.344C105.878 67.0054 106.272 67.4747 106.806 67.752C107.36 68.0294 108.086 68.168 108.982 68.168ZM119.611 71.08C119.76 71.08 119.899 70.9307 120.027 70.632C120.176 70.3334 120.251 69.8427 120.251 69.16V58.344C120.251 57.6613 120.176 57.1814 120.027 56.904C119.899 56.6053 119.76 56.4453 119.611 56.424C120.55 56.424 121.51 56.36 122.491 56.232C123.472 56.0827 124.24 55.9333 124.795 55.784V57.064L124.731 57.608L124.795 57.672C124.944 57.4373 125.179 57.1814 125.499 56.904C125.84 56.6053 126.267 56.3493 126.779 56.136C127.312 55.9014 127.931 55.784 128.635 55.784C129.68 55.784 130.608 55.9333 131.419 56.232C132.23 56.5093 132.806 56.7973 133.147 57.096L132.187 61.384V62.344C131.867 61.896 131.43 61.4374 130.875 60.968C130.342 60.4987 129.744 60.104 129.083 59.784C128.443 59.464 127.782 59.304 127.099 59.304C126.331 59.304 125.755 59.5813 125.371 60.136C124.987 60.6907 124.795 61.5653 124.795 62.76V69.16C124.795 69.8427 124.859 70.3334 124.987 70.632C125.136 70.9307 125.286 71.08 125.435 71.08H119.611ZM135.205 71.08C135.354 71.08 135.493 70.9307 135.621 70.632C135.77 70.3334 135.845 69.8427 135.845 69.16V50.92C135.845 50.2373 135.77 49.7573 135.621 49.48C135.493 49.1814 135.354 49.0213 135.205 49H140.389V61.096C140.389 61.5653 140.421 61.8533 140.485 61.96C140.549 62.0453 140.741 62.088 141.061 62.088C141.552 62.088 142.053 61.928 142.565 61.608C143.077 61.288 143.546 60.8293 143.973 60.232C144.4 59.6133 144.698 58.888 144.869 58.056C145.018 57.352 145.082 56.8507 145.061 56.552C145.04 56.2533 144.976 56.104 144.869 56.104H151.365C151.216 56.104 150.992 56.2533 150.693 56.552C150.416 56.8293 150.096 57.3307 149.733 58.056C149.306 58.9307 148.869 59.72 148.421 60.424C147.973 61.1067 147.504 61.6933 147.013 62.184C146.522 62.6533 145.989 63.0374 145.413 63.336C146.416 63.7627 147.258 64.3067 147.941 64.968C148.624 65.608 149.21 66.3014 149.701 67.048C150.213 67.7734 150.682 68.4774 151.109 69.16C151.536 69.8427 151.909 70.3334 152.229 70.632C152.57 70.9307 152.816 71.08 152.965 71.08H146.501C146.629 71.0587 146.672 70.8774 146.629 70.536C146.608 70.1947 146.394 69.6294 145.989 68.84C145.584 68.0294 145.104 67.3467 144.549 66.792C144.016 66.216 143.44 65.7787 142.821 65.48C142.224 65.1814 141.637 65.032 141.061 65.032C140.72 65.032 140.517 65.0747 140.453 65.16C140.41 65.224 140.389 65.5014 140.389 65.992V69.16C140.389 69.8427 140.453 70.3334 140.581 70.632C140.73 70.9307 140.88 71.08 141.029 71.08H135.205Z" fill="#1A1A1A"/>
</svg>
